<svg width="177" height="50" viewBox="0 0 177 50" fill="none" xmlns="http://www.w3.org/2000/svg">
<path d="M45.4297 24.8794L39.2171 34.681L27.6262 34.2013L24.3175 27.8774L24.3135 27.875L22.2454 23.9239L28.458 14.1222L40.0488 14.602L45.4297 24.8794Z" fill="white"/>
<path d="M25.6947 33.6674L23.6346 36.9176L9.99047 36.3518L6.04095 28.8045C6.03703 28.802 6.03951 28.7981 6.03559 28.7956L3.65669 24.2523L10.9675 12.7179L24.6107 13.2853L25.8084 15.5699L20.5586 23.8525L20.9476 24.5985C20.9515 24.601 20.9529 24.6074 20.9546 24.6134L25.6947 33.6674Z" fill="white"/>
<g style="mix-blend-mode:screen" opacity="0.4">
<g style="mix-blend-mode:screen" opacity="0.4">
<path d="M43.8259 24.8123L23.8525 23.9872L29.2037 15.5444L39.1905 15.957L43.8259 24.8123Z" fill="white"/>
</g>
</g>
<g style="mix-blend-mode:screen" opacity="0.2">
<g style="mix-blend-mode:screen" opacity="0.2">
<path d="M24.2018 15.5022L21.2383 20.1778L8.2241 19.6435L11.7099 14.144L23.7513 14.6403L24.2018 15.5022Z" fill="white"/>
</g>
</g>
<g style="mix-blend-mode:multiply" opacity="0.3">
<g style="mix-blend-mode:multiply" opacity="0.3">
<path d="M25.6936 33.6674L23.6335 36.9177L9.98937 36.3518L6.03985 28.8045C6.79327 30.0061 7.52099 31.2309 8.23864 32.4542L9.30767 34.301C9.62121 34.8455 9.92836 35.3915 10.233 35.9414C10.2397 35.9396 10.2436 35.9421 10.25 35.9406C11.3075 35.9522 12.3651 35.9638 13.4203 35.9965C14.5556 36.0239 15.6968 36.0507 16.8325 36.0948C17.9683 36.1389 19.1068 36.17 20.2437 36.221L23.3546 36.3704L25.1589 33.6277L24.1585 31.5774L23.0597 29.2666C22.3384 27.7286 21.6223 26.1824 20.9548 24.6115L25.6936 33.6674Z" fill="white"/>
</g>
</g>
<g style="mix-blend-mode:multiply" opacity="0.3">
<g style="mix-blend-mode:multiply" opacity="0.3">
<path d="M44.0249 27.0953L39.2184 34.6786L27.6275 34.1988L24.3188 27.875C24.9848 28.868 25.5964 29.8864 26.2177 30.9065L27.1266 32.4431L27.8849 33.7582C28.7725 33.7608 29.6579 33.7841 30.5483 33.7996C31.512 33.8121 32.4806 33.8601 33.4444 33.8896C34.4082 33.9192 35.3768 33.9672 36.3452 34.0156C37.217 34.0517 38.0929 34.1074 38.9661 34.1673C39.3253 33.6265 39.6912 33.0839 40.062 32.551C40.4814 31.9325 40.9084 31.3194 41.3455 30.7078C42.2099 29.486 43.0978 28.2758 44.0249 27.0953Z" fill="white"/>
</g>
</g>
<g style="mix-blend-mode:multiply" opacity="0.3">
<g style="mix-blend-mode:multiply" opacity="0.3">
<path d="M24.609 13.286C23.4648 13.3677 22.3259 13.3979 21.187 13.428C20.0492 13.4479 18.9063 13.4584 17.7688 13.4516C17.198 13.4516 16.6305 13.4377 16.0602 13.4281L14.3528 13.3938C13.323 13.3558 12.2894 13.3325 11.2569 13.2813C10.7574 14.0521 10.2701 14.8295 9.7549 15.5904L8.90227 16.8663L8.02955 18.1306C7.73838 18.5554 7.4497 18.9762 7.14951 19.3892L6.2533 20.6386C5.64603 21.4668 5.03485 22.2925 4.38842 23.0959L10.9658 12.7186L24.609 13.286Z" fill="white"/>
</g>
</g>
<g style="mix-blend-mode:multiply" opacity="0.3">
<g style="mix-blend-mode:multiply" opacity="0.3">
<path d="M40.0503 14.602C39.0803 14.6947 38.1112 14.7342 37.1386 14.7704C36.166 14.8066 35.1998 14.8156 34.2365 14.8198C33.7505 14.8246 33.2664 14.8087 32.7853 14.8057C32.3042 14.8026 31.8167 14.801 31.3313 14.7788C30.4717 14.7494 29.6066 14.7286 28.7463 14.6828C28.3662 15.2653 27.99 15.8502 27.5942 16.4227C27.1519 17.0859 26.6948 17.7464 26.2302 18.4015C26.001 18.7283 25.7655 19.0566 25.5249 19.3756C25.2843 19.6946 25.0561 20.0286 24.8091 20.3491C24.3237 20.985 23.8314 21.6231 23.3119 22.2435L28.4594 14.1222L40.0503 14.602Z" fill="white"/>
</g>
</g>
<path d="M59.1294 33.3232C62.7589 33.3232 65.2945 31.3841 65.2945 28.2021C65.2945 24.7466 62.386 23.8517 59.5023 22.9319C56.9666 22.1364 55.9971 21.5646 55.9971 20.2222C55.9971 18.9046 57.066 18.0594 58.7316 18.0594C60.6707 18.0594 61.7645 19.1035 62.386 20.4956L64.7974 19.1035C63.7035 16.7916 61.5905 15.2751 58.7316 15.2751C55.7982 15.2751 53.1382 17.0899 53.1382 20.2968C53.1382 23.5782 55.7733 24.5726 58.483 25.393C61.0684 26.1885 62.4357 26.7105 62.4357 28.2518C62.4357 29.5197 61.4662 30.5389 59.204 30.5389C56.8423 30.5389 55.4999 29.3705 54.8784 27.6055L52.4173 29.0473C53.3371 31.6327 55.6988 33.3232 59.1294 33.3232ZM70.0365 27.9286H79.9306C79.9803 27.5806 80.03 27.1829 80.03 26.81C80.03 23.2302 77.4944 20.247 73.7903 20.247C69.8873 20.247 67.2274 23.1059 67.2274 26.7851C67.2274 30.514 69.8873 33.3232 73.9892 33.3232C76.4254 33.3232 78.2899 32.3039 79.4334 30.6135L77.2209 29.3208C76.6243 30.1909 75.5056 30.8621 74.014 30.8621C72.0253 30.8621 70.4591 29.8677 70.0365 27.9286ZM70.0116 25.741C70.3845 23.8765 71.7518 22.6833 73.7654 22.6833C75.3813 22.6833 76.9475 23.6031 77.3204 25.741H70.0116ZM92.2138 20.5702V22.4098C91.2691 21.0674 89.8024 20.247 87.8882 20.247C84.383 20.247 81.6236 23.1059 81.6236 26.6608C81.6236 30.2157 84.383 33.0746 87.8882 33.0746C89.8024 33.0746 91.2691 32.2542 92.2138 30.9118V32.4282C92.2138 34.591 90.8216 35.8588 88.5097 35.8588C86.3469 35.8588 85.4271 35.0136 84.8802 33.9447L82.5682 35.2871C83.6123 37.2758 85.7254 38.2951 88.46 38.2951C91.7166 38.2951 94.8489 36.4306 94.8489 32.4282V20.5702H92.2138ZM88.2611 30.5638C85.9989 30.5638 84.3084 28.8982 84.3084 26.6608C84.3084 24.4235 85.9989 22.7579 88.2611 22.7579C90.5233 22.7579 92.2138 24.4235 92.2138 26.6608C92.2138 28.8982 90.5233 30.5638 88.2611 30.5638ZM106.356 20.5702V27.2326C106.356 29.7683 104.964 30.8124 103.199 30.8124C101.508 30.8124 100.414 29.818 100.414 27.9286V20.5702H97.7297V28.2021C97.7297 31.4338 99.7184 33.3232 102.503 33.3232C104.193 33.3232 105.536 32.7017 106.356 31.409V33H109.041V20.5702H106.356ZM114.865 22.6584V20.5702H112.18V33H114.865V26.7354C114.865 23.9511 116.928 23.1308 118.693 23.2551V20.3465C117.127 20.3465 115.611 20.968 114.865 22.6584ZM129.939 20.5702V22.3352C128.994 21.0425 127.528 20.247 125.588 20.247C122.208 20.247 119.398 23.081 119.398 26.7851C119.398 30.4643 122.208 33.3232 125.588 33.3232C127.528 33.3232 128.994 32.5277 129.939 31.2101V33H132.624V20.5702H129.939ZM126.011 30.7626C123.774 30.7626 122.083 29.097 122.083 26.7851C122.083 24.4732 123.774 22.8076 126.011 22.8076C128.248 22.8076 129.939 24.4732 129.939 26.7851C129.939 29.097 128.248 30.7626 126.011 30.7626ZM142.341 15.5983H135.927V33H138.786V27.0337H142.341C145.622 27.0337 148.108 24.5229 148.108 21.316C148.108 18.0843 145.622 15.5983 142.341 15.5983ZM142.341 24.3489H138.786V18.2831H142.341C144.031 18.2831 145.249 19.551 145.249 21.316C145.249 23.0562 144.031 24.3489 142.341 24.3489ZM159.387 20.5702V22.3352C158.442 21.0425 156.975 20.247 155.036 20.247C151.655 20.247 148.846 23.081 148.846 26.7851C148.846 30.4643 151.655 33.3232 155.036 33.3232C156.975 33.3232 158.442 32.5277 159.387 31.2101V33H162.072V20.5702H159.387ZM155.459 30.7626C153.222 30.7626 151.531 29.097 151.531 26.7851C151.531 24.4732 153.222 22.8076 155.459 22.8076C157.696 22.8076 159.387 24.4732 159.387 26.7851C159.387 29.097 157.696 30.7626 155.459 30.7626ZM173.579 20.5702L170.397 29.5942L166.693 20.5702H163.759L169.029 32.7763L168.905 33.0249C168.284 34.6656 167.339 35.5605 165.599 35.4611V37.9719C168.458 38.1459 170.496 36.5549 171.665 33.3978L176.438 20.5702H173.579Z" fill="white"/>
</svg>
