<svg width="1535" height="730" viewBox="0 0 1535 730" fill="none" xmlns="http://www.w3.org/2000/svg">
<path d="M0 8C0 3.58173 3.58172 0 8 0H1443V730H8C3.58172 730 0 726.418 0 722V8Z" fill="#EFFBFF"/>
<g opacity="0.3">
<path d="M1297.39 271.397L1297.45 271.105L1297.43 271.054L1307.41 221.38L1433.43 178.859L1533.23 266.709L1507.05 397.064L1381.03 439.586L1281.24 351.735L1297.39 271.397Z" stroke="#54D9EE" stroke-width="2.21988"/>
<path d="M1133.71 145.087L1133.71 145.056C1133.72 145.044 1133.72 145.032 1133.72 145.019C1133.73 144.994 1133.73 144.97 1133.74 144.944L1133.77 144.796L1133.76 144.782L1145.28 87.4138L1293.79 37.3026L1411.41 140.882L1405.8 168.894L1298.89 204.967L1298.29 205.171L1298.16 205.798L1296.23 215.34L1296.22 215.378L1296.2 215.412L1296.18 215.527L1273.03 330.841L1232.05 344.667L1114.41 241.095L1133.71 145.087Z" stroke="#243AC0" stroke-width="2.21988"/>
</g>
</svg>
