<svg width="511" height="756" viewBox="0 0 511 756" fill="none" xmlns="http://www.w3.org/2000/svg">
<g style="mix-blend-mode:hard-light" opacity="0.05">
<path d="M302.868 756.349H299.66L306.18 736.546C306.458 735.744 307.295 735.326 308.097 735.57C308.899 735.849 309.282 736.686 309.073 737.488L302.868 756.349Z" fill="#243AC0" fill-opacity="0.32"/>
<path d="M303.286 756.349H300.741L306.494 736.686C306.668 736.024 307.365 735.675 308.028 735.849C308.69 736.024 309.108 736.721 308.864 737.383L303.286 756.349Z" fill="#243AC0" fill-opacity="0.32"/>
<path d="M306.215 736.72C306.11 737.174 306.25 737.697 306.598 738.045C307.156 738.603 308.098 738.603 308.655 738.045L372.491 674.036C373.048 673.478 373.048 672.536 372.491 671.979C371.933 671.421 370.991 671.421 370.434 671.979L306.598 735.988C306.424 736.197 306.285 736.441 306.215 736.72Z" fill="#243AC0" fill-opacity="0.32"/>
<path d="M297.743 756.349H294.013L306.25 736.198C306.703 735.466 307.679 735.222 308.446 735.675C309.213 736.128 309.457 737.104 308.969 737.871L297.743 756.349Z" fill="#243AC0" fill-opacity="0.32"/>
<path d="M285.018 756.349L306.459 691.154C306.668 690.561 307.296 690.247 307.888 690.422C308.481 690.631 308.795 691.224 308.621 691.851L287.423 756.349H285.018Z" fill="#243AC0" fill-opacity="0.32"/>
<path d="M304.646 756.349H301.822L370.643 672.328C371.026 671.875 371.723 671.805 372.177 672.188C372.63 672.572 372.7 673.269 372.316 673.722L304.646 756.349Z" fill="#243AC0" fill-opacity="0.32"/>
<path d="M294.675 756.349L306.354 691.294V691.259C306.493 690.631 307.086 690.248 307.714 690.353C308.341 690.457 308.794 691.085 308.655 691.712L297.045 756.349H294.675Z" fill="#243AC0" fill-opacity="0.32"/>
<path d="M335.221 756.349L305.03 719.743C304.751 719.394 304.681 718.976 304.751 718.592C304.82 718.313 304.96 718.034 305.204 717.825C305.797 717.337 306.633 717.442 307.121 718L338.743 756.349H335.221Z" fill="#243AC0" fill-opacity="0.32"/>
<path d="M306.041 691.189C306.006 691.433 306.006 691.677 306.075 691.956C306.319 692.758 307.156 693.246 307.993 693.002L371.933 674.489C372.735 674.245 373.223 673.408 372.979 672.572C372.735 671.77 371.898 671.282 371.061 671.526L307.121 690.038C306.529 690.178 306.145 690.631 306.041 691.189Z" fill="#243AC0" fill-opacity="0.32"/>
<path d="M306.355 691.259C306.355 691.328 306.32 691.398 306.32 691.433L304.89 718.766C304.856 719.428 305.378 719.986 306.006 720.021C306.668 720.056 307.226 719.568 307.261 718.905L308.69 691.572C308.725 690.91 308.202 690.352 307.575 690.317C306.982 690.283 306.494 690.666 306.355 691.259Z" fill="#243AC0" fill-opacity="0.32"/>
<path d="M305.622 691.084C305.413 691.99 305.901 692.897 306.773 693.28C307.749 693.699 308.899 693.245 309.318 692.269L336.721 628.643C337.174 627.667 336.686 626.517 335.709 626.098C334.733 625.68 333.583 626.133 333.164 627.109L305.762 690.735C305.692 690.84 305.657 690.979 305.622 691.084Z" fill="#243AC0" fill-opacity="0.32"/>
<path d="M299.765 644.855C299.695 645.099 299.695 645.343 299.695 645.622L303.182 719.01C303.251 720.614 304.611 721.834 306.215 721.764C307.819 721.694 309.004 720.335 308.969 718.731L305.483 645.343C305.413 643.74 304.053 642.519 302.45 642.589C301.125 642.624 300.044 643.6 299.765 644.855Z" fill="#243AC0" fill-opacity="0.32"/>
<path d="M306.528 720.16L197.161 756.349H188.341L305.657 717.546C306.389 717.301 307.156 717.685 307.4 718.417C307.644 719.149 307.261 719.916 306.528 720.16Z" fill="#243AC0" fill-opacity="0.32"/>
<path d="M374.234 756.348L305.448 720.09C304.891 719.776 304.612 719.149 304.716 718.556C304.751 718.417 304.786 718.312 304.856 718.208C305.204 717.51 306.076 717.266 306.738 717.615L380.231 756.348H374.234Z" fill="#243AC0" fill-opacity="0.32"/>
<path d="M304.611 718.522C304.437 719.289 304.89 720.056 305.622 720.301C306.424 720.545 307.295 720.126 307.539 719.324L336.407 628.365C336.651 627.598 336.232 626.692 335.43 626.448C334.628 626.204 333.757 626.622 333.513 627.424L304.646 718.383C304.611 718.418 304.611 718.488 304.611 718.522Z" fill="#243AC0" fill-opacity="0.32"/>
<path d="M449.191 756.349H441.137L463.833 713.223C464.74 711.48 466.901 710.817 468.645 711.724C470.388 712.63 471.05 714.792 470.144 716.535L449.191 756.349Z" fill="#243AC0" fill-opacity="0.32"/>
<path d="M109.026 756.349L84.622 714.931C84.2733 714.374 84.2036 713.711 84.3431 713.118C84.4825 712.456 84.9009 711.863 85.5284 711.48C86.7486 710.783 88.2826 711.166 88.9799 712.386L114.884 756.384H109.026V756.349Z" fill="#243AC0" fill-opacity="0.32"/>
<path d="M389.295 492.466C389.225 492.85 389.295 493.233 389.539 493.547L437.477 553.965C437.93 554.523 438.767 554.628 439.324 554.175C439.882 553.721 439.987 552.885 439.534 552.327L391.596 491.908C391.143 491.351 390.306 491.246 389.748 491.699C389.504 491.908 389.33 492.152 389.295 492.466Z" fill="#243AC0" fill-opacity="0.32"/>
<path d="M452.189 478.103L436.221 552.676C435.942 553.931 436.744 555.151 437.999 555.43C439.254 555.709 440.475 554.907 440.753 553.652L456.721 479.079C457 477.824 456.198 476.604 454.943 476.325C453.723 476.046 452.468 476.848 452.189 478.103Z" fill="#243AC0" fill-opacity="0.32"/>
<path d="M333.269 627.529C333.164 627.982 333.269 628.505 333.548 628.888C334.106 629.655 335.186 629.83 335.953 629.272L439.533 554.559C440.3 554.001 440.474 552.92 439.916 552.153C439.359 551.386 438.278 551.212 437.511 551.77L333.931 626.483C333.583 626.727 333.339 627.11 333.269 627.529Z" fill="#243AC0" fill-opacity="0.32"/>
<path d="M300.95 645.099C300.88 645.483 300.915 645.901 301.125 646.25C301.578 647.052 302.589 647.365 303.391 646.912L335.744 629.341C336.546 628.888 336.86 627.877 336.407 627.075C335.953 626.273 334.942 625.959 334.14 626.412L301.787 643.984C301.369 644.228 301.055 644.646 300.95 645.099Z" fill="#243AC0" fill-opacity="0.32"/>
<path d="M333.687 627.598C333.548 628.191 333.862 628.818 334.454 629.062C335.117 629.341 335.884 629.027 336.163 628.365L391.77 493.234C392.014 492.571 391.735 491.804 391.073 491.525C390.41 491.246 389.643 491.56 389.365 492.223L333.722 627.354C333.722 627.458 333.687 627.528 333.687 627.598Z" fill="#243AC0" fill-opacity="0.32"/>
<path d="M300.671 645.03C300.497 645.832 300.845 646.668 301.578 647.122C302.519 647.679 303.704 647.366 304.262 646.459L356.976 558.743C357.534 557.801 357.22 556.616 356.313 556.058C355.372 555.5 354.187 555.814 353.629 556.72L300.915 644.437C300.81 644.646 300.741 644.856 300.671 645.03Z" fill="#243AC0" fill-opacity="0.32"/>
<path d="M301.194 645.169C301.055 645.762 301.333 646.389 301.891 646.703C302.589 647.087 303.46 646.878 303.844 646.18L391.804 493.443C392.223 492.746 391.979 491.874 391.281 491.491C390.584 491.107 389.713 491.316 389.329 492.014L301.368 644.751C301.264 644.89 301.229 645.03 301.194 645.169Z" fill="#243AC0" fill-opacity="0.32"/>
<path d="M134.338 644.925C134.303 644.925 134.303 644.925 134.338 644.925C134.163 645.797 134.721 646.668 135.593 646.843L466.692 716.465C467.564 716.64 468.435 716.117 468.61 715.21C468.784 714.339 468.226 713.467 467.355 713.293L136.255 643.67C135.384 643.496 134.512 644.054 134.338 644.925Z" fill="#243AC0" fill-opacity="0.32"/>
<path d="M493.816 512.13C493.816 512.164 493.781 512.234 493.781 512.269L465.019 714.582C464.879 715.663 465.611 716.674 466.727 716.849C467.808 716.988 468.819 716.221 468.993 715.14L497.756 512.827C497.895 511.746 497.163 510.735 496.047 510.561C495.001 510.421 494.025 511.118 493.816 512.13Z" fill="#243AC0" fill-opacity="0.32"/>
<path d="M353.769 557.383C353.664 557.801 353.769 558.255 354.013 558.638L465.716 715.768C466.204 716.466 467.215 716.64 467.912 716.152C468.609 715.629 468.784 714.653 468.296 713.955L356.593 556.825C356.105 556.128 355.094 555.954 354.396 556.442C354.048 556.686 353.838 557.034 353.769 557.383Z" fill="#243AC0" fill-opacity="0.32"/>
<path d="M85.4585 713.327C85.3539 713.85 85.5283 714.408 86.0163 714.756C86.6439 715.21 87.5155 715.07 87.9339 714.443L137.057 646.075C137.51 645.448 137.37 644.576 136.743 644.158C136.115 643.704 135.244 643.844 134.825 644.471L85.7026 712.839C85.5631 712.978 85.4934 713.153 85.4585 713.327Z" fill="#243AC0" fill-opacity="0.32"/>
<path d="M349.446 756.349L228.818 718.662C227.249 718.173 226.342 716.57 226.691 715.001C226.726 714.896 226.726 714.827 226.761 714.722C227.284 713.083 229.027 712.142 230.665 712.665L370.364 756.349H349.446Z" fill="#243AC0" fill-opacity="0.32"/>
<path d="M480.497 756.349L356.488 686.204C354.954 685.332 354.256 683.624 354.605 682.02C354.675 681.636 354.814 681.288 355.023 680.939C356.069 679.056 358.44 678.429 360.322 679.475L496.291 756.384H480.497V756.349Z" fill="#243AC0" fill-opacity="0.32"/>
<path d="M209.956 756.349H203.681L227.388 714.303C228.12 712.978 229.793 712.525 231.118 713.257C232.443 713.989 232.896 715.628 232.164 716.988L209.956 756.349Z" fill="#243AC0" fill-opacity="0.32"/>
<path d="M379.568 414.371C379.463 414.86 379.637 415.417 380.056 415.801L453.548 479.741C454.176 480.264 455.082 480.194 455.605 479.601C456.128 479.009 456.058 478.067 455.466 477.544L381.973 413.604C381.346 413.082 380.439 413.151 379.916 413.744C379.707 413.883 379.603 414.127 379.568 414.371Z" fill="#243AC0" fill-opacity="0.32"/>
<path d="M465.228 396.208C465.228 396.243 465.193 396.313 465.193 396.347L451.84 478.172C451.596 479.602 452.572 480.961 454.002 481.205C455.431 481.449 456.86 480.369 457.035 479.044L470.387 397.219C470.631 395.79 469.655 394.43 468.226 394.186C466.831 393.942 465.541 394.848 465.228 396.208Z" fill="#243AC0" fill-opacity="0.32"/>
<path d="M388.597 492.293C388.527 492.571 388.527 492.85 388.597 493.164C388.841 494.245 389.887 494.907 390.968 494.698L454.873 480.544C455.954 480.299 456.651 479.219 456.407 478.173C456.163 477.092 455.117 476.43 454.036 476.639L390.131 490.793C389.364 490.968 388.771 491.56 388.597 492.293Z" fill="#243AC0" fill-opacity="0.32"/>
<path d="M353.525 557.347C353.351 558.114 353.699 558.916 354.432 559.334C355.303 559.823 356.419 559.474 356.872 558.602L392.154 493.617C392.642 492.71 392.293 491.629 391.422 491.176C390.55 490.688 389.435 491.037 388.981 491.908L353.699 556.894C353.63 557.033 353.56 557.173 353.525 557.347Z" fill="#243AC0" fill-opacity="0.32"/>
<path d="M378.243 414.059C378.173 414.373 378.173 414.686 378.208 415L387.795 493.06C387.97 494.594 389.399 495.709 390.933 495.5C392.467 495.326 393.583 493.931 393.374 492.362L383.786 414.303C383.612 412.769 382.182 411.653 380.648 411.862C379.428 412.002 378.487 412.943 378.243 414.059Z" fill="#243AC0" fill-opacity="0.32"/>
<path d="M388.807 492.362C388.667 493.024 388.877 493.721 389.434 494.14C390.201 494.767 391.352 494.628 391.979 493.861L469.237 397.916C469.865 397.149 469.725 395.999 468.958 395.371C468.191 394.744 467.041 394.883 466.413 395.65L389.155 491.595C388.981 491.839 388.842 492.083 388.807 492.362Z" fill="#243AC0" fill-opacity="0.32"/>
<path d="M371.968 421.937C371.968 421.972 371.933 422.042 371.933 422.077L353.42 557.452C353.281 558.463 354.013 559.439 355.024 559.579C356.07 559.718 357.011 558.881 357.151 557.975L375.663 422.6C375.803 421.589 375.07 420.612 374.059 420.473C373.083 420.333 372.177 420.996 371.968 421.937Z" fill="#243AC0" fill-opacity="0.32"/>
<path d="M353.733 557.382C353.664 557.661 353.698 557.94 353.768 558.219C354.047 559.056 354.954 559.544 355.825 559.265L496.291 514.117C497.162 513.838 497.615 512.931 497.336 512.06C497.058 511.223 496.151 510.735 495.279 511.014L354.814 556.162C354.221 556.371 353.838 556.825 353.733 557.382Z" fill="#243AC0" fill-opacity="0.32"/>
<path d="M379.463 414.337C379.463 414.372 379.463 414.372 379.463 414.407L353.769 557.487C353.629 558.324 354.187 559.125 355.024 559.3C355.861 559.439 356.663 558.847 356.837 558.045L382.531 414.965C382.671 414.128 382.113 413.326 381.276 413.152C380.44 412.977 379.638 413.535 379.463 414.337Z" fill="#243AC0" fill-opacity="0.32"/>
<path d="M151.385 529.632C151.351 529.771 151.351 529.945 151.351 530.085C151.385 531.061 152.222 531.828 153.198 531.758L495.838 514.326C496.814 514.291 497.581 513.455 497.511 512.479C497.476 511.502 496.64 510.735 495.663 510.805L153.024 528.237C152.222 528.272 151.56 528.865 151.385 529.632Z" fill="#243AC0" fill-opacity="0.32"/>
<path d="M495.838 438.986C495.803 439.161 495.768 439.37 495.768 439.544L492.282 512.409C492.177 514.327 493.676 515.965 495.594 516.07C497.511 516.174 499.185 514.71 499.255 512.758L502.741 439.893C502.846 437.975 501.346 436.337 499.429 436.232C497.686 436.162 496.221 437.348 495.838 438.986Z" fill="#243AC0" fill-opacity="0.32"/>
<path d="M371.444 421.832C371.235 422.739 371.584 423.715 372.386 424.308L494.339 514.535C495.419 515.337 496.918 515.093 497.72 514.012C498.522 512.931 498.278 511.432 497.197 510.63L375.245 420.403C374.164 419.601 372.665 419.845 371.863 420.926C371.654 421.17 371.514 421.519 371.444 421.832Z" fill="#243AC0" fill-opacity="0.32"/>
<path d="M150.759 529.492C150.759 529.527 150.724 529.596 150.724 529.666L133.501 644.925C133.292 646.25 134.233 647.47 135.558 647.679C136.883 647.889 138.138 647.017 138.312 645.623L155.535 530.398C155.744 529.074 154.803 527.853 153.478 527.644C152.223 527.435 151.037 528.272 150.759 529.492Z" fill="#243AC0" fill-opacity="0.32"/>
<path d="M95.4295 582.206C95.1505 583.461 95.8478 584.785 97.0681 585.239L357.394 685.262C358.754 685.785 360.323 685.123 360.846 683.728C361.369 682.369 360.672 680.8 359.312 680.277L98.9856 580.253C97.6259 579.73 96.057 580.393 95.5341 581.787C95.4992 581.962 95.4643 582.101 95.4295 582.206Z" fill="#243AC0" fill-opacity="0.32"/>
<path d="M154.837 533.85C154.593 534.966 155.011 536.151 155.953 536.848L356.593 685.193C357.917 686.169 359.765 685.89 360.741 684.565C361.718 683.24 361.439 681.393 360.114 680.417L159.474 532.072C158.149 531.096 156.301 531.375 155.325 532.699C155.081 533.048 154.907 533.432 154.837 533.85Z" fill="#243AC0" fill-opacity="0.32"/>
<path d="M226.028 714.827C225.924 715.385 225.924 715.978 226.063 716.57C226.586 718.627 228.678 719.847 230.735 719.324L359.347 686.483C361.403 685.96 362.624 683.903 362.101 681.811C361.578 679.754 359.486 678.534 357.429 679.057L228.817 711.898C227.388 712.317 226.342 713.467 226.028 714.827Z" fill="#243AC0" fill-opacity="0.32"/>
<path d="M18.4156 601.554C18.1018 602.914 18.7294 604.378 20.0542 605.11L228.225 718.522C229.793 719.393 231.781 718.801 232.617 717.232C233.489 715.663 232.896 713.676 231.327 712.839L23.157 599.428C21.5882 598.556 19.601 599.149 18.7642 600.718C18.5899 600.962 18.4853 601.276 18.4156 601.554Z" fill="#243AC0" fill-opacity="0.32"/>
<path d="M94.1393 581.927C93.8604 583.182 94.209 584.576 95.1852 585.552L226.935 718.418C228.469 719.986 230.979 719.986 232.548 718.452C234.082 716.918 234.117 714.408 232.583 712.839L100.833 579.974C99.2991 578.405 96.7889 578.405 95.2201 579.939C94.6622 580.532 94.3136 581.229 94.1393 581.927Z" fill="#243AC0" fill-opacity="0.32"/>
<path d="M155.116 533.92C155.011 534.408 155.046 534.966 155.255 535.454L227.318 716.64C227.876 718 229.41 718.663 230.77 718.14C232.13 717.582 232.792 716.048 232.269 714.688L160.206 533.502C159.648 532.142 158.114 531.48 156.755 532.003C155.883 532.352 155.29 533.084 155.116 533.92Z" fill="#243AC0" fill-opacity="0.32"/>
<path d="M195.488 756.349H181.228L226.272 712.107C228.225 710.19 231.397 710.19 233.315 712.177C235.232 714.164 235.197 717.302 233.245 719.219L195.488 756.349Z" fill="#243AC0" fill-opacity="0.32"/>
<path d="M123.355 756.348L18.7992 604.169C18.2414 603.367 18.102 602.426 18.2763 601.554C18.4506 600.752 18.9387 599.985 19.6708 599.497C21.2048 598.451 23.2966 598.835 24.3425 600.369L131.513 756.348H123.355Z" fill="#243AC0" fill-opacity="0.32"/>
<path d="M140.02 756.349L95.4296 583.461C95.325 583.042 95.325 582.624 95.3948 582.24C95.604 581.264 96.3361 580.462 97.3471 580.218C98.7765 579.835 100.241 580.706 100.624 582.136L145.563 756.349H140.02Z" fill="#243AC0" fill-opacity="0.32"/>
<path d="M387.621 284.366C387.516 284.819 387.621 285.342 387.9 285.76L466.308 397.777C466.866 398.579 467.982 398.788 468.818 398.23C469.62 397.673 469.829 396.557 469.272 395.72L390.863 283.703C390.305 282.902 389.19 282.692 388.353 283.25C387.97 283.564 387.726 283.948 387.621 284.366Z" fill="#243AC0" fill-opacity="0.32"/>
<path d="M379.149 414.268C379.079 414.512 379.079 414.791 379.149 415.035C379.358 416.081 380.369 416.709 381.38 416.5L468.191 398.615C469.237 398.405 469.899 397.394 469.655 396.383C469.446 395.337 468.435 394.71 467.424 394.919L380.613 412.804C379.846 412.978 379.289 413.571 379.149 414.268Z" fill="#243AC0" fill-opacity="0.32"/>
<path d="M372.281 422.007C372.177 422.53 372.316 423.088 372.735 423.471C373.362 424.064 374.373 424.029 374.966 423.402L382.148 415.732C382.74 415.104 382.706 414.093 382.078 413.5C381.45 412.908 380.439 412.943 379.847 413.57L372.665 421.24C372.456 421.484 372.316 421.728 372.281 422.007Z" fill="#243AC0" fill-opacity="0.32"/>
<path d="M387.865 284.435C387.865 284.505 387.83 284.575 387.83 284.679L379.428 414.581C379.358 415.453 380.021 416.185 380.892 416.22C381.764 416.289 382.461 415.592 382.531 414.755L390.933 284.854C391.003 283.982 390.34 283.25 389.469 283.215C388.702 283.145 388.039 283.668 387.865 284.435Z" fill="#243AC0" fill-opacity="0.32"/>
<path d="M331.665 313.198C331.561 313.651 331.63 314.105 331.805 314.558L379.045 415.558C379.533 416.639 380.823 417.092 381.869 416.569C382.95 416.081 383.403 414.791 382.88 413.745L335.64 312.745C335.152 311.664 333.862 311.211 332.816 311.734C332.223 312.013 331.805 312.571 331.665 313.198Z" fill="#243AC0" fill-opacity="0.32"/>
<path d="M329.016 314.244C328.911 314.767 328.946 315.325 329.155 315.847L371.236 423.367C371.794 424.796 373.397 425.494 374.862 424.936C376.291 424.378 376.988 422.739 376.43 421.31L334.35 313.791C333.792 312.361 332.189 311.664 330.724 312.222C329.818 312.57 329.19 313.372 329.016 314.244Z" fill="#243AC0" fill-opacity="0.32"/>
<path d="M151.594 529.665C151.525 530.014 151.559 530.362 151.734 530.676C152.117 531.443 153.059 531.792 153.826 531.408L374.512 423.75C375.279 423.366 375.628 422.425 375.244 421.658C374.861 420.891 373.919 420.542 373.152 420.926L152.466 528.584C151.978 528.828 151.699 529.212 151.594 529.665Z" fill="#243AC0" fill-opacity="0.32"/>
<path d="M372.072 421.972C372.072 422.007 372.037 422.077 372.037 422.112C371.898 423.088 372.595 423.994 373.571 424.134L499.01 441.496C499.987 441.635 500.893 440.938 501.033 439.962C501.172 438.986 500.475 438.079 499.499 437.94L374.059 420.578C373.118 420.438 372.281 421.066 372.072 421.972Z" fill="#243AC0" fill-opacity="0.32"/>
<path d="M332.118 313.303C332.049 313.616 332.084 313.93 332.188 314.244L372.247 422.914C372.56 423.785 373.536 424.239 374.408 423.925C375.28 423.611 375.733 422.635 375.419 421.763L335.361 313.093C335.047 312.222 334.071 311.769 333.199 312.082C332.607 312.292 332.223 312.745 332.118 313.303Z" fill="#243AC0" fill-opacity="0.32"/>
<path d="M457.348 208.467C457.278 208.746 457.278 209.06 457.313 209.374L496.918 440.101C497.127 441.391 498.347 442.262 499.637 442.018C500.927 441.809 501.799 440.589 501.555 439.299L461.95 208.572C461.741 207.282 460.521 206.41 459.231 206.654C458.289 206.829 457.557 207.561 457.348 208.467Z" fill="#243AC0" fill-opacity="0.32"/>
<path d="M330.096 314.488C329.957 315.115 330.201 315.778 330.724 316.161L498.278 441.042C499.011 441.6 500.056 441.426 500.614 440.694C501.172 439.962 500.998 438.916 500.266 438.358L332.711 313.477C331.979 312.919 330.933 313.093 330.375 313.825C330.236 314.034 330.166 314.244 330.096 314.488Z" fill="#243AC0" fill-opacity="0.32"/>
<path d="M151.525 529.666C151.455 529.91 151.49 530.154 151.525 530.433C151.769 531.304 152.64 531.827 153.512 531.618L499.638 441.321C500.509 441.077 501.032 440.171 500.823 439.334C500.579 438.463 499.707 437.94 498.836 438.149L152.71 528.446C152.083 528.585 151.664 529.073 151.525 529.666Z" fill="#243AC0" fill-opacity="0.32"/>
<path d="M35.0457 407.016C34.9062 407.574 35.0805 408.201 35.4988 408.655L151.804 531.27C152.501 532.002 153.652 532.037 154.384 531.339C155.116 530.642 155.151 529.492 154.453 528.76L38.1485 406.144C37.4512 405.412 36.3007 405.377 35.5686 406.075C35.2897 406.354 35.1154 406.667 35.0457 407.016Z" fill="#243AC0" fill-opacity="0.32"/>
<path d="M-48.9753 404.471C-49.1496 405.342 -48.801 406.284 -47.9991 406.807L156.546 536.36C157.591 537.022 158.951 536.708 159.579 535.662C160.241 534.651 159.927 533.257 158.881 532.629L-45.6632 403.076C-46.7091 402.414 -48.0689 402.728 -48.6964 403.774C-48.8359 403.983 -48.9404 404.227 -48.9753 404.471Z" fill="#243AC0" fill-opacity="0.32"/>
<path d="M68.2707 417.51C68.0615 418.416 68.2707 419.428 68.8634 420.229L155.011 536.465C156.127 537.964 158.219 538.278 159.718 537.162C161.217 536.046 161.531 533.954 160.415 532.455L74.2324 416.185C73.1167 414.686 71.0249 414.372 69.5258 415.488C68.8634 416.011 68.4102 416.743 68.2707 417.51Z" fill="#243AC0" fill-opacity="0.32"/>
<path d="M19.3226 601.763C19.218 602.252 19.2529 602.809 19.4969 603.297C20.0547 604.448 21.4493 604.901 22.5998 604.343L158.742 536.569C159.893 536.011 160.346 534.581 159.788 533.466C159.23 532.315 157.836 531.862 156.685 532.42L20.5428 600.195C19.9153 600.508 19.462 601.101 19.3226 601.763Z" fill="#243AC0" fill-opacity="0.32"/>
<path d="M93.6519 581.822C93.373 583.112 93.6519 584.506 94.5583 585.587C96.1272 587.505 98.9163 587.818 100.869 586.249L160.555 537.929C162.473 536.395 162.786 533.571 161.218 531.618C159.649 529.701 156.86 529.387 154.907 530.956L95.2207 579.277C94.384 579.974 93.8611 580.881 93.6519 581.822Z" fill="#243AC0" fill-opacity="0.32"/>
<path d="M-122.608 490.688C-122.852 491.839 -122.259 493.024 -121.143 493.477L97.068 585.064C98.3231 585.587 99.7525 584.994 100.275 583.739C100.798 582.484 100.206 581.055 98.9506 580.532L-119.261 488.945C-120.516 488.422 -121.945 489.015 -122.468 490.27C-122.503 490.374 -122.573 490.549 -122.608 490.688Z" fill="#243AC0" fill-opacity="0.32"/>
<path d="M-49.0102 404.471C-49.1496 405.099 -49.0101 405.796 -48.5569 406.354L96.3013 584.193C97.0683 585.134 98.4629 585.274 99.4391 584.507C100.38 583.74 100.52 582.345 99.7528 581.369L-45.1053 403.53C-45.8723 402.589 -47.267 402.449 -48.2431 403.216C-48.6266 403.53 -48.9056 403.983 -49.0102 404.471Z" fill="#243AC0" fill-opacity="0.32"/>
<path d="M69.2121 417.718C69.1423 417.997 69.1424 418.311 69.1772 418.59L95.6736 583.146C95.8828 584.436 97.103 585.342 98.4278 585.133C99.7177 584.924 100.624 583.704 100.415 582.379L73.9187 417.823C73.7095 416.533 72.4893 415.627 71.1645 415.836C70.1534 416.01 69.4212 416.777 69.2121 417.718Z" fill="#243AC0" fill-opacity="0.32"/>
<path d="M17.2655 601.311C17.1261 601.973 17.126 602.67 17.3004 603.333C17.893 605.704 20.3335 607.133 22.7042 606.54L99.1252 587.052C101.496 586.459 102.925 584.018 102.333 581.648C101.74 579.277 99.2996 577.848 96.9288 578.44L20.5079 597.929C18.7995 598.382 17.6141 599.707 17.2655 601.311Z" fill="#243AC0" fill-opacity="0.32"/>
<path d="M-213.741 515.267C-213.985 516.453 -213.357 517.708 -212.172 518.161L20.7169 604.623C22.0068 605.111 23.4711 604.448 23.9592 603.158C24.4473 601.834 23.7849 600.404 22.4949 599.916L-210.394 513.454C-211.684 512.966 -213.148 513.629 -213.636 514.919C-213.706 515.023 -213.741 515.128 -213.741 515.267Z" fill="#243AC0" fill-opacity="0.32"/>
<path d="M-123.584 490.48C-123.863 491.735 -123.41 493.094 -122.329 493.931L19.4615 604.972C20.9606 606.157 23.157 605.878 24.3424 604.379C25.5277 602.88 25.2488 600.683 23.7497 599.498L-118.041 488.457C-119.54 487.272 -121.736 487.551 -122.921 489.05C-123.27 489.503 -123.479 489.957 -123.584 490.48Z" fill="#243AC0" fill-opacity="0.32"/>
<path d="M-48.7667 404.506C-48.8364 404.854 -48.8365 405.203 -48.697 405.586L19.7054 602.914C20.054 603.96 21.2045 604.483 22.2156 604.135C23.2615 603.786 23.8193 602.635 23.4358 601.624L-44.9666 404.297C-45.3152 403.251 -46.4657 402.728 -47.4768 403.076C-48.1392 403.285 -48.6273 403.878 -48.7667 404.506Z" fill="#243AC0" fill-opacity="0.32"/>
<path d="M245.308 180.82C245.203 181.343 245.377 181.866 245.831 182.215L388.597 285.864C389.19 286.318 390.061 286.178 390.48 285.551C390.933 284.923 390.794 284.086 390.166 283.668L247.4 180.019C246.807 179.565 245.935 179.705 245.517 180.332C245.412 180.472 245.343 180.646 245.308 180.82Z" fill="#243AC0" fill-opacity="0.32"/>
<path d="M314.931 248.944C314.617 250.443 315.314 252.012 316.744 252.709L387.865 287.782C389.539 288.619 391.596 287.922 392.433 286.248C393.269 284.54 392.572 282.518 390.899 281.681L319.777 246.608C318.103 245.771 316.046 246.469 315.21 248.142C315.105 248.421 315.001 248.7 314.931 248.944Z" fill="#243AC0" fill-opacity="0.32"/>
<path d="M332.118 313.302C332.049 313.686 332.084 314.069 332.258 314.453C332.676 315.29 333.722 315.603 334.524 315.185L390.166 286.283C391.003 285.865 391.317 284.819 390.898 284.017C390.48 283.18 389.434 282.866 388.632 283.285L332.99 312.187C332.502 312.396 332.223 312.814 332.118 313.302Z" fill="#243AC0" fill-opacity="0.32"/>
<path d="M329.922 314.453C329.818 314.872 329.887 315.36 330.132 315.743C330.62 316.615 331.735 316.929 332.642 316.406L334.664 315.255C335.535 314.767 335.849 313.617 335.326 312.745C334.838 311.873 333.722 311.56 332.816 312.083L330.794 313.233C330.341 313.512 330.027 313.965 329.922 314.453Z" fill="#243AC0" fill-opacity="0.32"/>
<path d="M316.709 249.328C316.674 249.572 316.674 249.781 316.709 250.026L332.188 314C332.397 314.837 333.269 315.395 334.106 315.186C334.977 314.976 335.5 314.105 335.291 313.268L319.811 249.293C319.602 248.422 318.731 247.899 317.894 248.108C317.266 248.282 316.848 248.77 316.709 249.328Z" fill="#243AC0" fill-opacity="0.32"/>
<path d="M219.613 225.097C219.474 225.76 219.718 226.492 220.276 226.945L332.606 315.115C333.408 315.742 334.559 315.603 335.186 314.801C335.814 313.999 335.674 312.849 334.872 312.221L222.542 224.051C221.74 223.424 220.589 223.563 219.962 224.365C219.788 224.574 219.683 224.818 219.613 225.097Z" fill="#243AC0" fill-opacity="0.32"/>
<path d="M234.709 210.629C234.57 211.222 234.744 211.849 235.163 212.302L332.397 314.941C333.094 315.673 334.28 315.708 335.012 315.011C335.744 314.313 335.779 313.128 335.082 312.396L237.847 209.757C237.15 209.025 235.964 208.99 235.232 209.688C234.953 209.967 234.779 210.28 234.709 210.629Z" fill="#243AC0" fill-opacity="0.32"/>
<path d="M329.991 314.453C329.887 314.976 329.991 315.499 330.34 315.952C330.968 316.684 332.083 316.824 332.815 316.196L460.73 210.351C461.462 209.723 461.601 208.607 460.974 207.875C460.346 207.143 459.231 207.038 458.499 207.631L330.584 313.477C330.27 313.721 330.096 314.07 329.991 314.453Z" fill="#243AC0" fill-opacity="0.32"/>
<path d="M219.509 225.062C219.37 225.759 219.579 226.492 220.171 226.98L330.48 316.335C331.317 316.997 332.537 316.893 333.234 316.056C333.897 315.219 333.792 313.999 332.955 313.302L222.647 223.947C221.81 223.284 220.59 223.389 219.893 224.225C219.718 224.504 219.579 224.783 219.509 225.062Z" fill="#243AC0" fill-opacity="0.32"/>
<path d="M174.012 99.4842C173.838 100.321 174.291 101.193 175.093 101.506L458.987 210.629C459.894 210.978 460.905 210.525 461.254 209.618C461.602 208.712 461.149 207.701 460.242 207.352L176.348 98.2291C175.442 97.8805 174.431 98.3337 174.082 99.2401C174.082 99.3099 174.047 99.3796 174.012 99.4842Z" fill="#243AC0" fill-opacity="0.32"/>
<path d="M354.884 140.937C354.501 142.75 355.198 144.702 356.837 145.783L457.07 212.826C459.196 214.255 462.09 213.697 463.519 211.536C464.949 209.409 464.391 206.515 462.229 205.086L361.997 138.043C359.87 136.614 356.976 137.172 355.547 139.333C355.233 139.821 355.024 140.379 354.884 140.937Z" fill="#243AC0" fill-opacity="0.32"/>
<path d="M-96.4249 296.394C-96.5295 296.883 -96.3553 297.406 -95.9718 297.754L35.9172 408.481C36.5099 408.969 37.3815 408.899 37.8696 408.307C38.3577 407.714 38.2879 406.842 37.6953 406.354L-94.1937 295.627C-94.7864 295.139 -95.658 295.209 -96.1461 295.802C-96.2855 295.976 -96.3901 296.185 -96.4249 296.394Z" fill="#243AC0" fill-opacity="0.32"/>
<path d="M-18.3648 322.856C-18.4694 323.309 -18.3997 323.797 -18.1208 324.215L35.2902 408.376C35.848 409.213 36.9637 409.492 37.8004 408.934C38.6371 408.411 38.916 407.261 38.3582 406.424L-15.0528 322.263C-15.6106 321.426 -16.7262 321.147 -17.5629 321.705C-17.9813 321.984 -18.2603 322.403 -18.3648 322.856Z" fill="#243AC0" fill-opacity="0.32"/>
<path d="M-58.0751 327.666C-58.2145 328.363 -58.0054 329.095 -57.4127 329.584L35.5337 408.898C36.3704 409.595 37.6255 409.526 38.3228 408.689C39.0549 407.852 38.9154 406.597 38.1135 405.9L-54.8328 326.585C-55.6695 325.888 -56.9246 325.958 -57.6219 326.794C-57.866 327.038 -58.0053 327.352 -58.0751 327.666Z" fill="#243AC0" fill-opacity="0.32"/>
<path d="M-183.27 382.855C-183.27 382.89 -183.27 382.96 -183.304 382.995C-183.444 383.971 -182.747 384.877 -181.77 385.017L71.3044 420.02C72.2806 420.159 73.187 419.392 73.3265 418.486C73.4659 417.51 72.7686 416.603 71.7925 416.464L-181.282 381.461C-182.189 381.321 -183.06 381.949 -183.27 382.855Z" fill="#243AC0" fill-opacity="0.32"/>
<path d="M-147.884 319.473C-148.058 320.31 -147.64 321.181 -146.838 321.565L70.7458 419.915C71.6871 420.333 72.8028 419.915 73.2211 418.974C73.6395 418.032 73.2211 416.952 72.2798 416.498L-145.304 318.148C-146.245 317.73 -147.361 318.148 -147.779 319.09C-147.814 319.229 -147.849 319.368 -147.884 319.473Z" fill="#243AC0" fill-opacity="0.32"/>
<path d="M-18.8882 322.75C-19.0626 323.482 -18.8534 324.249 -18.3304 324.842L69.8047 419.811C70.6763 420.752 72.1755 420.822 73.1168 419.915C74.0581 419.044 74.1278 417.544 73.2214 416.603L-14.9138 321.635C-15.7854 320.693 -17.2845 320.624 -18.2258 321.53C-18.5396 321.879 -18.7836 322.297 -18.8882 322.75Z" fill="#243AC0" fill-opacity="0.32"/>
<path d="M-50.4394 404.157C-50.4742 404.296 -50.4742 404.401 -50.5091 404.54C-50.7531 406.562 -49.2888 408.41 -47.2319 408.654L71.13 421.937C73.1521 422.181 75.0348 420.717 75.2439 418.66C75.488 416.638 74.0237 414.79 71.9668 414.546L-46.3952 401.263C-48.3127 401.019 -50.0559 402.309 -50.4394 404.157Z" fill="#243AC0" fill-opacity="0.32"/>
<path d="M244.611 180.682C244.472 181.344 244.646 182.076 245.204 182.599L316.849 251.141C317.685 251.908 318.975 251.908 319.742 251.071C320.509 250.234 320.509 248.944 319.673 248.177L248.028 179.636C247.191 178.869 245.901 178.869 245.134 179.705C244.89 179.984 244.716 180.333 244.611 180.682Z" fill="#243AC0" fill-opacity="0.32"/>
<path d="M206.156 187.829C205.982 188.596 206.33 189.398 207.028 189.781L317.371 251.246C318.242 251.734 319.323 251.42 319.811 250.548C320.299 249.677 319.986 248.596 319.114 248.108L208.771 186.643C207.899 186.155 206.818 186.469 206.33 187.341C206.261 187.515 206.191 187.689 206.156 187.829Z" fill="#243AC0" fill-opacity="0.32"/>
<path d="M234.814 210.664C234.639 211.431 235.023 212.233 235.755 212.581L317.51 251.21C318.382 251.629 319.393 251.245 319.811 250.374C320.23 249.502 319.846 248.491 318.975 248.073L237.219 209.444C236.348 209.025 235.337 209.409 234.918 210.28C234.884 210.42 234.849 210.524 234.814 210.664Z" fill="#243AC0" fill-opacity="0.32"/>
<path d="M122.449 160.774C122.274 161.646 122.693 162.552 123.564 162.936L235.755 212.791C236.732 213.209 237.882 212.791 238.3 211.815C238.719 210.839 238.3 209.688 237.324 209.27L125.133 159.415C124.157 158.996 123.007 159.415 122.588 160.391C122.518 160.495 122.449 160.635 122.449 160.774Z" fill="#243AC0" fill-opacity="0.32"/>
<path d="M235.024 210.699C234.85 211.431 235.268 212.198 236.035 212.442C236.837 212.721 237.708 212.302 237.953 211.501L248.063 181.588C248.307 180.821 247.924 179.914 247.122 179.67C246.32 179.391 245.448 179.81 245.204 180.611L235.094 210.524C235.059 210.594 235.059 210.664 235.024 210.699Z" fill="#243AC0" fill-opacity="0.32"/>
<path d="M204.623 187.514C204.344 188.735 204.797 190.025 205.808 190.861L234.396 213.662C235.86 214.813 237.987 214.569 239.137 213.139C240.288 211.675 240.044 209.548 238.615 208.398L210.026 185.597C208.562 184.446 206.435 184.69 205.285 186.12C204.971 186.538 204.727 187.026 204.623 187.514Z" fill="#243AC0" fill-opacity="0.32"/>
<path d="M218.916 224.923C218.742 225.725 218.951 226.596 219.578 227.259C220.554 228.27 222.193 228.305 223.204 227.328L238.3 212.86C239.311 211.884 239.346 210.245 238.37 209.234C237.394 208.223 235.755 208.188 234.744 209.164L219.648 223.633C219.264 224.016 219.02 224.47 218.916 224.923Z" fill="#243AC0" fill-opacity="0.32"/>
<path d="M122.135 160.705C121.961 161.577 122.309 162.518 123.076 163.041L220.171 227.364C221.217 228.061 222.577 227.748 223.274 226.737C223.937 225.726 223.693 224.331 222.647 223.634L125.552 159.31C124.506 158.613 123.146 158.927 122.449 159.938C122.309 160.182 122.205 160.426 122.135 160.705Z" fill="#243AC0" fill-opacity="0.32"/>
<path d="M206.4 187.899C206.33 188.178 206.365 188.456 206.47 188.735L219.962 226.005C220.241 226.806 221.147 227.225 221.949 226.911C222.751 226.632 223.135 225.726 222.856 224.924L209.364 187.655C209.085 186.853 208.178 186.434 207.376 186.748C206.888 186.957 206.54 187.411 206.4 187.899Z" fill="#243AC0" fill-opacity="0.32"/>
<path d="M173.001 99.2399C172.687 100.739 173.628 102.238 175.128 102.552L358.824 144.632C360.323 144.981 361.822 144.04 362.171 142.541V142.506C362.484 141.007 361.543 139.507 360.044 139.194L176.348 97.1133C174.883 96.7646 173.349 97.7059 173.001 99.2399Z" fill="#243AC0" fill-opacity="0.32"/>
<path d="M69.4216 125.702C69.2822 126.294 69.6308 126.887 70.2235 127.061L246.285 182.25C246.912 182.46 247.575 182.111 247.749 181.483C247.923 180.856 247.609 180.193 246.982 180.019L70.9208 124.83C70.2932 124.621 69.6308 124.97 69.4565 125.597C69.4565 125.632 69.4216 125.667 69.4216 125.702Z" fill="#243AC0" fill-opacity="0.32"/>
<path d="M132.489 125.771C132.349 126.398 132.663 127.096 133.256 127.375L245.97 182.424C246.702 182.773 247.574 182.494 247.922 181.762C248.271 181.03 247.957 180.158 247.26 179.809L134.546 124.76C133.814 124.411 132.942 124.69 132.593 125.422C132.559 125.562 132.524 125.666 132.489 125.771Z" fill="#243AC0" fill-opacity="0.32"/>
<path d="M205.668 187.724C205.598 188.003 205.598 188.316 205.668 188.63C205.912 189.885 207.098 190.722 208.353 190.478L247.051 183.366C248.306 183.122 249.108 181.936 248.899 180.681C248.655 179.426 247.47 178.59 246.215 178.834L207.516 185.946C206.575 186.12 205.843 186.852 205.668 187.724Z" fill="#243AC0" fill-opacity="0.32"/>
<path d="M122.728 160.844C122.554 161.646 123.007 162.483 123.809 162.727L207.412 189.781C208.283 190.06 209.19 189.606 209.469 188.735C209.747 187.933 209.294 186.957 208.423 186.678L124.82 159.624C123.948 159.345 123.042 159.798 122.763 160.67C122.763 160.739 122.763 160.774 122.728 160.844Z" fill="#243AC0" fill-opacity="0.32"/>
<path d="M69.3163 125.667C69.1768 126.26 69.4906 126.852 70.0484 127.131L207.376 189.433C208.038 189.712 208.805 189.433 209.084 188.77C209.363 188.108 209.084 187.341 208.422 187.062L71.0943 124.761C70.4319 124.482 69.6649 124.761 69.386 125.388C69.3511 125.493 69.3163 125.563 69.3163 125.667Z" fill="#243AC0" fill-opacity="0.32"/>
<path d="M132.803 125.841C132.733 126.224 132.838 126.678 133.187 126.956L207.202 189.118C207.69 189.537 208.387 189.467 208.806 188.979C209.189 188.526 209.154 187.793 208.666 187.375L134.651 125.213C134.163 124.83 133.466 124.865 133.047 125.353C132.943 125.492 132.838 125.667 132.803 125.841Z" fill="#243AC0" fill-opacity="0.32"/>
<path d="M38.0092 106.213C37.8349 107.084 38.1835 108.026 38.9505 108.514L123.111 163.006C124.122 163.668 125.482 163.389 126.144 162.343C126.807 161.297 126.528 159.938 125.482 159.31L41.3212 104.818C40.3102 104.156 38.9505 104.435 38.2881 105.481C38.1487 105.725 38.0441 105.969 38.0092 106.213Z" fill="#243AC0" fill-opacity="0.32"/>
<path d="M80.5075 29.408C80.2983 30.3842 80.647 31.465 81.5186 32.0925L174.151 101.994C175.336 102.866 177.01 102.656 177.882 101.471C178.753 100.286 178.544 98.6123 177.359 97.7407L84.726 27.8392C83.5407 26.9676 81.8672 27.1767 80.9956 28.3621C80.7167 28.6759 80.5772 29.0245 80.5075 29.408Z" fill="#243AC0" fill-opacity="0.32"/>
<path d="M-5.01294 91.5004C-5.15239 92.1279 -4.76889 92.7555 -4.14134 92.9298L133.64 127.27C134.267 127.445 134.929 127.026 135.104 126.399C135.278 125.771 134.86 125.109 134.232 124.935L-3.54872 90.594C-4.17627 90.4196 -4.83862 90.838 -5.01294 91.4656C-5.01294 91.4656 -5.01294 91.4655 -5.01294 91.5004Z" fill="#243AC0" fill-opacity="0.32"/>
<path d="M16.2545 102.517C16.0802 103.319 16.6031 104.086 17.3701 104.26L133.605 127.514C134.372 127.654 135.139 127.166 135.314 126.399C135.314 126.399 135.314 126.399 135.314 126.364C135.488 125.562 134.965 124.83 134.163 124.655L17.9279 101.401C17.1609 101.262 16.4288 101.75 16.2545 102.517Z" fill="#243AC0" fill-opacity="0.32"/>
<path d="M68.7587 125.527C68.7238 125.666 68.7238 125.771 68.7238 125.91C68.7238 126.921 69.5606 127.758 70.5716 127.793L133.919 127.932C134.965 127.932 135.801 127.096 135.767 126.085C135.767 125.073 134.93 124.237 133.919 124.202L70.5716 124.062C69.7 124.062 68.933 124.69 68.7587 125.527Z" fill="#243AC0" fill-opacity="0.32"/>
<path d="M-47.0582 77.3106C-47.1977 77.9381 -46.8839 78.5657 -46.2912 78.8097L70.0486 127.131C70.711 127.41 71.478 127.096 71.7569 126.433C72.0707 125.736 71.7221 125.004 71.0597 124.725L-45.2802 76.4041C-45.9426 76.1252 -46.7095 76.439 -46.9884 77.1014C-47.0233 77.1712 -47.0234 77.2409 -47.0582 77.3106Z" fill="#243AC0" fill-opacity="0.32"/>
<path d="M38.8807 106.422C38.7761 106.945 38.9853 107.503 39.4386 107.782L69.8745 127.026C70.4671 127.41 71.269 127.236 71.6525 126.608C72.036 125.98 71.8617 125.213 71.2341 124.83L40.7982 105.585C40.2056 105.202 39.4037 105.376 39.0202 106.004C38.9854 106.143 38.9156 106.283 38.8807 106.422Z" fill="#243AC0" fill-opacity="0.32"/>
<path d="M-52.0435 76.4042C-52.1481 76.8923 -51.904 77.4152 -51.3811 77.6244L70.1883 126.922C70.7461 127.131 71.3736 126.887 71.5828 126.329C71.8269 125.736 71.548 125.144 70.9902 124.934L-50.5792 75.6372C-51.137 75.428 -51.7645 75.6721 -51.9737 76.2299C-52.0434 76.2996 -52.0435 76.3693 -52.0435 76.4042Z" fill="#243AC0" fill-opacity="0.32"/>
<path d="M-5.77994 91.3264C-5.98912 92.198 -5.53597 93.1393 -4.66438 93.5577L69.7694 127.759C70.7804 128.212 71.9309 127.794 72.3842 126.783C72.8374 125.806 72.419 124.621 71.408 124.168L-3.02579 89.9667C-4.03683 89.5134 -5.18733 89.9318 -5.64056 90.9429C-5.71029 91.0475 -5.74508 91.1869 -5.77994 91.3264Z" fill="#243AC0" fill-opacity="0.32"/>
<path d="M16.2897 102.553C16.1502 103.18 16.464 103.877 17.0915 104.121L70.0145 127.236C70.7118 127.55 71.5485 127.236 71.8622 126.504C72.176 125.807 71.8622 124.97 71.1301 124.656L18.2072 101.542C17.5099 101.228 16.6732 101.542 16.3594 102.274C16.3594 102.343 16.3245 102.448 16.2897 102.553Z" fill="#243AC0" fill-opacity="0.32"/>
<path d="M-47.3365 77.2759C-47.5108 78.0778 -47.0576 78.8797 -46.2906 79.1237L39.6133 108.2C40.45 108.479 41.3565 108.026 41.6354 107.189C41.9492 106.387 41.4611 105.446 40.6243 105.167L-45.2795 76.0906C-46.1163 75.8117 -47.0227 76.2649 -47.3016 77.1016C-47.3016 77.1365 -47.3365 77.2062 -47.3365 77.2759Z" fill="#243AC0" fill-opacity="0.32"/>
<path d="M-12.8916 31.6747C-12.9962 32.1279 -12.8917 32.6509 -12.6128 33.0692L38.6716 107.712C39.2294 108.514 40.3451 108.723 41.1818 108.165C41.9837 107.608 42.1929 106.492 41.635 105.655L-9.64933 31.0123C-10.2071 30.2104 -11.3228 30.0012 -12.1595 30.5591C-12.543 30.838 -12.787 31.2215 -12.8916 31.6747Z" fill="#243AC0" fill-opacity="0.32"/>
<path d="M38.9154 106.422C38.8108 106.945 39.0548 107.537 39.5429 107.816C40.1704 108.165 40.9375 107.956 41.2861 107.328L84.2381 30.5933C84.5867 29.9657 84.3775 29.1987 83.75 28.8501C83.1224 28.5014 82.3554 28.7106 82.0068 29.3382L39.0548 106.073C38.9851 106.178 38.9154 106.282 38.9154 106.422Z" fill="#243AC0" fill-opacity="0.32"/>
<path d="M-13.2752 31.5703C-13.31 31.7447 -13.3448 31.919 -13.31 32.0933C-13.2751 33.3136 -12.299 34.2549 -11.0787 34.22L83.1575 32.1282C84.3778 32.0933 85.3191 31.1171 85.2842 29.8969C85.2494 28.6767 84.2732 27.7354 83.053 27.7702L-11.1833 29.8621C-12.2292 29.8621 -13.066 30.5942 -13.2752 31.5703Z" fill="#243AC0" fill-opacity="0.32"/>
<path d="M-36.0412 70.8266C-36.1458 71.2798 -35.9365 71.8028 -35.5182 72.0817L17.0561 103.842C17.6139 104.191 18.3111 104.017 18.6598 103.459C19.0084 102.901 18.7993 102.204 18.2763 101.855L-34.298 70.0944C-34.8559 69.7458 -35.5531 69.9201 -35.9017 70.4779C-35.9715 70.5825 -36.0063 70.6871 -36.0412 70.8266Z" fill="#243AC0" fill-opacity="0.32"/>
<path d="M-52.8109 76.2645C-52.9852 77.1361 -52.5319 78.0425 -51.6603 78.3563L17.0209 104.539C17.9622 104.887 19.0081 104.434 19.3916 103.493C19.7054 102.552 19.287 101.506 18.3457 101.122L-50.3355 74.9396C-51.2768 74.591 -52.3228 75.0442 -52.7063 75.9856C-52.7412 76.0902 -52.776 76.1599 -52.8109 76.2645Z" fill="#243AC0" fill-opacity="0.32"/>
<path d="M-5.67487 91.3607C-5.84919 92.1626 -5.4657 93.0342 -4.6987 93.4177L16.8121 104.504C17.7185 104.992 18.8691 104.609 19.3572 103.702C19.8104 102.761 19.4617 101.645 18.5553 101.157L-2.95552 90.0708C-3.86197 89.5827 -5.01251 89.9662 -5.5006 90.8726C-5.60519 91.047 -5.64001 91.1864 -5.67487 91.3607Z" fill="#243AC0" fill-opacity="0.32"/>
<path d="M313.013 738.185C313.641 735.222 311.758 732.293 308.795 731.631C305.831 731.003 302.903 732.886 302.24 735.849C301.613 738.813 303.495 741.741 306.459 742.404C309.457 743.031 312.386 741.149 313.013 738.185Z" fill="#243AC0" fill-opacity="0.32"/>
<path d="M377.336 674.245C378.034 671.003 375.977 667.83 372.769 667.133C369.527 666.436 366.354 668.493 365.657 671.7C364.96 674.942 367.017 678.115 370.224 678.812C373.432 679.544 376.639 677.487 377.336 674.245Z" fill="#243AC0" fill-opacity="0.32"/>
<path d="M313.606 692.828C314.338 689.481 312.211 686.169 308.829 685.437C305.482 684.705 302.17 686.832 301.438 690.214C300.706 693.56 302.833 696.872 306.215 697.605C309.561 698.302 312.874 696.175 313.606 692.828Z" fill="#243AC0" fill-opacity="0.32"/>
<path d="M313.048 720.335C313.884 716.5 311.444 712.7 307.609 711.898C303.774 711.061 299.974 713.502 299.172 717.337C298.335 721.172 300.776 724.972 304.611 725.774C308.411 726.61 312.211 724.205 313.048 720.335Z" fill="#243AC0" fill-opacity="0.32"/>
<path d="M445.077 554.559C445.878 550.933 443.543 547.342 439.917 546.54C436.291 545.738 432.7 548.074 431.898 551.7C431.096 555.326 433.432 558.917 437.058 559.719C440.719 560.52 444.31 558.219 445.077 554.559Z" fill="#243AC0" fill-opacity="0.32"/>
<path d="M341.427 629.271C342.194 625.68 339.928 622.159 336.337 621.392C332.746 620.625 329.225 622.891 328.458 626.482C327.691 630.073 329.957 633.594 333.548 634.361C337.104 635.128 340.66 632.862 341.427 629.271Z" fill="#243AC0" fill-opacity="0.32"/>
<path d="M309.631 646.982C310.468 643.112 307.993 639.277 304.123 638.44C300.253 637.603 296.418 640.079 295.581 643.949C294.744 647.819 297.22 651.654 301.09 652.49C304.96 653.327 308.76 650.852 309.631 646.982Z" fill="#243AC0" fill-opacity="0.32"/>
<path d="M476.315 716.883C477.431 711.724 474.153 706.668 469.028 705.553C463.869 704.437 458.813 707.714 457.698 712.839C456.582 717.999 459.859 723.054 464.984 724.17C470.144 725.286 475.199 722.043 476.315 716.883Z" fill="#243AC0" fill-opacity="0.32"/>
<path d="M93.373 715.036C94.1748 711.41 91.839 707.819 88.2132 707.017C84.5874 706.215 80.9965 708.551 80.1947 712.177C79.3928 715.803 81.7286 719.394 85.3544 720.196C89.0151 720.997 92.606 718.696 93.373 715.036Z" fill="#243AC0" fill-opacity="0.32"/>
<path d="M461.358 480.09C462.194 476.29 459.754 472.525 455.954 471.723C452.154 470.886 448.388 473.327 447.587 477.127C446.75 480.927 449.19 484.692 452.99 485.494C456.791 486.296 460.521 483.89 461.358 480.09Z" fill="#243AC0" fill-opacity="0.32"/>
<path d="M397.732 494.279C398.603 490.305 396.058 486.4 392.119 485.529C388.144 484.657 384.239 487.202 383.368 491.142C382.496 495.116 385.041 499.021 388.981 499.892C392.99 500.764 396.895 498.254 397.732 494.279Z" fill="#243AC0" fill-opacity="0.32"/>
<path d="M363.043 559.405C363.984 555.117 361.265 550.898 356.976 549.992C352.688 549.05 348.47 551.77 347.563 556.058C346.622 560.346 349.341 564.565 353.63 565.471C357.918 566.412 362.136 563.693 363.043 559.405Z" fill="#243AC0" fill-opacity="0.32"/>
<path d="M495.768 522.624C490.223 522.624 485.728 518.128 485.728 512.583C485.728 507.038 490.223 502.542 495.768 502.542C501.314 502.542 505.809 507.038 505.809 512.583C505.809 518.128 501.314 522.624 495.768 522.624Z" fill="#243AC0" fill-opacity="0.32"/>
<path d="M143.646 646.947C144.588 642.659 141.868 638.44 137.58 637.534C133.292 636.593 129.073 639.312 128.167 643.6C127.226 647.888 129.945 652.107 134.233 653.013C138.521 653.92 142.74 651.2 143.646 646.947Z" fill="#243AC0" fill-opacity="0.32"/>
<path d="M370.05 685.332C371.445 678.882 367.331 672.502 360.881 671.108C354.431 669.713 348.051 673.827 346.657 680.277C345.262 686.726 349.376 693.106 355.826 694.501C362.311 695.896 368.656 691.817 370.05 685.332Z" fill="#243AC0" fill-opacity="0.32"/>
<path d="M241.892 718.279C243.356 711.585 239.102 704.961 232.374 703.531C225.645 702.102 219.056 706.321 217.627 713.049C216.162 719.743 220.416 726.367 227.144 727.797C233.838 729.226 240.462 724.973 241.892 718.279Z" fill="#243AC0" fill-opacity="0.32"/>
<path d="M474.92 398.335C475.757 394.396 473.282 390.526 469.342 389.689C465.402 388.852 461.532 391.328 460.696 395.267C459.859 399.207 462.334 403.077 466.274 403.913C470.214 404.75 474.083 402.24 474.92 398.335Z" fill="#243AC0" fill-opacity="0.32"/>
<path d="M388.354 416.255C389.225 412.21 386.645 408.201 382.601 407.329C378.557 406.458 374.548 409.038 373.676 413.082C372.805 417.126 375.384 421.136 379.429 422.007C383.473 422.879 387.447 420.334 388.354 416.255Z" fill="#243AC0" fill-opacity="0.32"/>
<path d="M382.218 424.169C383.229 419.532 380.266 414.93 375.629 413.919C370.992 412.908 366.39 415.871 365.379 420.508C364.368 425.145 367.331 429.747 371.968 430.758C376.64 431.769 381.207 428.805 382.218 424.169Z" fill="#243AC0" fill-opacity="0.32"/>
<path d="M509.993 442.019C511.283 436.092 507.517 430.27 501.591 428.98C495.664 427.69 489.842 431.455 488.552 437.382C487.262 443.309 491.027 449.131 496.954 450.421C502.846 451.711 508.703 447.946 509.993 442.019Z" fill="#243AC0" fill-opacity="0.32"/>
<path d="M161.043 531.723C161.985 527.365 159.195 523.042 154.838 522.101C150.48 521.159 146.156 523.948 145.215 528.306C144.274 532.664 147.063 536.987 151.421 537.929C155.779 538.87 160.102 536.116 161.043 531.723Z" fill="#243AC0" fill-opacity="0.32"/>
<path d="M168.05 536.709C169.27 530.991 165.679 525.378 159.962 524.158C154.244 522.938 148.631 526.529 147.411 532.246C146.191 537.964 149.782 543.577 155.499 544.797C161.182 546.018 166.795 542.392 168.05 536.709Z" fill="#243AC0" fill-opacity="0.32"/>
<path d="M108.817 585.1C110.107 579.138 106.307 573.281 100.38 571.991C94.4184 570.701 88.5613 574.501 87.2714 580.428C85.9814 586.389 89.7817 592.247 95.7085 593.537C101.635 594.861 107.527 591.061 108.817 585.1Z" fill="#243AC0" fill-opacity="0.32"/>
<path d="M32.989 604.727C34.3487 598.452 30.3394 592.246 24.0639 590.886C17.7885 589.527 11.5828 593.536 10.2232 599.811C8.86349 606.087 12.8728 612.293 19.1482 613.652C25.4237 615.012 31.6293 611.003 32.989 604.727Z" fill="#243AC0" fill-opacity="0.32"/>
<path d="M396.372 286.249C397.209 282.379 394.769 278.579 390.899 277.742C387.029 276.905 383.229 279.346 382.392 283.215C381.555 287.085 383.996 290.885 387.866 291.722C391.735 292.559 395.536 290.119 396.372 286.249Z" fill="#243AC0" fill-opacity="0.32"/>
<path d="M341.253 315.289C342.159 311.141 339.51 307.097 335.396 306.19C331.247 305.284 327.203 307.933 326.296 312.047C325.39 316.196 328.039 320.24 332.153 321.146C336.267 322.053 340.346 319.403 341.253 315.289Z" fill="#243AC0" fill-opacity="0.32"/>
<path d="M340.207 316.65C341.218 311.978 338.255 307.341 333.548 306.33C328.877 305.319 324.24 308.282 323.229 312.989C322.218 317.661 325.181 322.298 329.888 323.309C334.56 324.32 339.196 321.356 340.207 316.65Z" fill="#243AC0" fill-opacity="0.32"/>
<path d="M470.596 211.327C471.921 205.261 468.051 199.299 462.02 198.009C455.954 196.684 449.992 200.554 448.702 206.586C447.377 212.652 451.247 218.613 457.278 219.903C463.345 221.228 469.306 217.393 470.596 211.327Z" fill="#243AC0" fill-opacity="0.32"/>
<path d="M44.32 409.038C45.2265 404.889 42.5768 400.81 38.428 399.904C34.2793 398.997 30.2003 401.647 29.2938 405.796C28.3873 409.944 31.037 414.023 35.1858 414.93C39.3345 415.836 43.4484 413.187 44.32 409.038Z" fill="#243AC0" fill-opacity="0.32"/>
<path d="M71.5478 428.004C66.1373 428.004 61.7512 423.618 61.7512 418.207C61.7512 412.797 66.1373 408.411 71.5478 408.411C76.9584 408.411 81.3445 412.797 81.3445 418.207C81.3445 423.618 76.9584 428.004 71.5478 428.004Z" fill="#243AC0" fill-opacity="0.32"/>
<path d="M325.006 251.141C325.808 247.411 323.438 243.75 319.707 242.948C315.977 242.146 312.316 244.517 311.514 248.248C310.712 251.978 313.083 255.639 316.813 256.441C320.544 257.208 324.204 254.872 325.006 251.141Z" fill="#243AC0" fill-opacity="0.32"/>
<path d="M243.53 212.546C244.366 208.677 241.891 204.842 238.021 204.005C234.151 203.168 230.317 205.643 229.48 209.513C228.643 213.383 231.118 217.218 234.988 218.055C238.858 218.892 242.693 216.416 243.53 212.546Z" fill="#243AC0" fill-opacity="0.32"/>
<path d="M228.922 227.119C229.829 222.971 227.179 218.926 223.065 218.02C218.917 217.113 214.873 219.763 213.966 223.877C213.06 228.026 215.709 232.07 219.823 232.976C223.937 233.848 228.016 231.233 228.922 227.119Z" fill="#243AC0" fill-opacity="0.32"/>
<path d="M369.667 144.145C370.887 138.497 367.296 132.918 361.648 131.698C356 130.478 350.422 134.069 349.202 139.717C347.982 145.365 351.572 150.943 357.22 152.163C362.868 153.349 368.447 149.792 369.667 144.145Z" fill="#243AC0" fill-opacity="0.32"/>
<path d="M253.013 182.495C253.78 178.973 251.549 175.487 248.028 174.72C244.506 173.953 241.02 176.184 240.253 179.706C239.486 183.227 241.717 186.713 245.239 187.48C248.76 188.247 252.246 186.016 253.013 182.495Z" fill="#243AC0" fill-opacity="0.32"/>
<path d="M214.524 189.642C215.326 185.981 212.99 182.39 209.329 181.588C205.669 180.786 202.078 183.122 201.276 186.783C200.474 190.444 202.81 194.035 206.47 194.837C210.131 195.638 213.757 193.303 214.524 189.642Z" fill="#243AC0" fill-opacity="0.32"/>
<path d="M131.304 162.692C132.141 158.822 129.701 155.022 125.831 154.186C121.961 153.349 118.161 155.789 117.324 159.659C116.487 163.529 118.928 167.329 122.798 168.166C126.668 169.002 130.468 166.527 131.304 162.692Z" fill="#243AC0" fill-opacity="0.32"/>
<path d="M184.646 101.786C185.692 96.8698 182.589 92.0238 177.673 90.9778C172.757 89.9319 167.911 93.0348 166.865 97.9506C165.819 102.866 168.922 107.712 173.838 108.758C178.719 109.804 183.565 106.666 184.646 101.786Z" fill="#243AC0" fill-opacity="0.32"/>
<path d="M139.671 127.306C140.369 124.133 138.347 120.995 135.174 120.333C132.001 119.636 128.864 121.658 128.201 124.83C127.504 128.003 129.526 131.141 132.699 131.803C135.836 132.5 138.974 130.478 139.671 127.306Z" fill="#243AC0" fill-opacity="0.32"/>
<path d="M76.4636 127.201C77.1609 123.958 75.1039 120.751 71.8616 120.054C68.6193 119.356 65.4119 121.413 64.7146 124.656C64.0173 127.898 66.0743 131.105 69.3166 131.803C72.5589 132.5 75.7663 130.443 76.4636 127.201Z" fill="#243AC0" fill-opacity="0.32"/>
<path d="M46.725 108.13C47.5269 104.504 45.1911 100.913 41.5653 100.111C37.9395 99.3095 34.3486 101.645 33.5467 105.271C32.7448 108.897 35.0806 112.488 38.7064 113.29C42.3671 114.057 45.958 111.756 46.725 108.13Z" fill="#243AC0" fill-opacity="0.32"/>
<path d="M91.2816 31.7439C92.2578 27.2116 89.3989 22.7839 84.8666 21.7729C80.3343 20.7967 75.9067 23.6555 74.8957 28.1878C73.9195 32.72 76.7784 37.1477 81.3106 38.1588C85.8429 39.135 90.3054 36.2413 91.2816 31.7439Z" fill="#243AC0" fill-opacity="0.32"/>
<path d="M22.9482 103.982C23.5758 101.053 21.728 98.1945 18.7995 97.5669C15.8709 96.9394 13.0122 98.7871 12.3847 101.716C11.7571 104.644 13.6049 107.503 16.5334 108.131C19.462 108.758 22.3207 106.876 22.9482 103.982Z" fill="#243AC0" fill-opacity="0.32"/>
<path d="M1.71613 92.9651C2.37854 89.8971 0.426179 86.8291 -2.64182 86.1667C-5.70981 85.5043 -8.77785 87.4566 -9.44026 90.5246C-10.1027 93.5926 -8.15031 96.6607 -5.08231 97.3231C-1.97945 97.9855 1.05372 96.0331 1.71613 92.9651Z" fill="#243AC0" fill-opacity="0.32"/>
</g>
</svg>
