<svg width="160" height="160" viewBox="0 0 160 160" fill="none" xmlns="http://www.w3.org/2000/svg">
<g filter="url(#filter0_d_286_85094)">
<rect x="36" y="32" width="88" height="88" rx="20" fill="white"/>
<path d="M80 67C77.5147 67 75.5 69.0147 75.5 71.5C75.5 73.9853 77.5147 76 80 76C82.4853 76 84.5 73.9853 84.5 71.5C84.5 69.0147 82.4853 67 80 67Z" fill="#243AC0"/>
<path fill-rule="evenodd" clip-rule="evenodd" d="M59 61.75C59 59.6789 60.6789 58 62.75 58H97.25C99.3211 58 101 59.6789 101 61.75V81.25C101 83.3211 99.3211 85 97.25 85H62.75C60.6789 85 59 83.3211 59 81.25V61.75ZM72.5 71.5C72.5 67.3579 75.8579 64 80 64C84.1421 64 87.5 67.3579 87.5 71.5C87.5 75.6421 84.1421 79 80 79C75.8579 79 72.5 75.6421 72.5 71.5ZM93.5 70C92.6716 70 92 70.6716 92 71.5V71.515C92 72.3434 92.6716 73.015 93.5 73.015H93.515C94.3434 73.015 95.015 72.3434 95.015 71.515V71.5C95.015 70.6716 94.3434 70 93.515 70H93.5ZM65 71.5C65 70.6716 65.6716 70 66.5 70H66.515C67.3434 70 68.015 70.6716 68.015 71.5V71.515C68.015 72.3434 67.3434 73.015 66.515 73.015H66.5C65.6716 73.015 65 72.3434 65 71.515V71.5Z" fill="#243AC0"/>
<path d="M60.5 88C59.6716 88 59 88.6716 59 89.5C59 90.3284 59.6716 91 60.5 91C71.3001 91 81.7605 92.4444 91.6996 95.1498C94.0807 95.7979 96.5 94.0336 96.5 91.5103V89.5C96.5 88.6716 95.8284 88 95 88H60.5Z" fill="#243AC0"/>
</g>
<defs>
<filter id="filter0_d_286_85094" x="0" y="0" width="160" height="160" filterUnits="userSpaceOnUse" color-interpolation-filters="sRGB">
<feFlood flood-opacity="0" result="BackgroundImageFix"/>
<feColorMatrix in="SourceAlpha" type="matrix" values="0 0 0 0 0 0 0 0 0 0 0 0 0 0 0 0 0 0 127 0" result="hardAlpha"/>
<feOffset dy="4"/>
<feGaussianBlur stdDeviation="18"/>
<feComposite in2="hardAlpha" operator="out"/>
<feColorMatrix type="matrix" values="0 0 0 0 0.917647 0 0 0 0 0.92549 0 0 0 0 0.94902 0 0 0 0.82 0"/>
<feBlend mode="normal" in2="BackgroundImageFix" result="effect1_dropShadow_286_85094"/>
<feBlend mode="normal" in="SourceGraphic" in2="effect1_dropShadow_286_85094" result="shape"/>
</filter>
</defs>
</svg>
