<svg width="202" height="33" viewBox="0 0 202 33" fill="none" xmlns="http://www.w3.org/2000/svg">
<path d="M51.7167 15.9956L44.6442 27.1539L31.449 26.6078L27.6822 19.4086L27.6778 19.4058L25.3234 14.9078L32.3959 3.74952L45.5911 4.29565L51.7167 15.9956Z" fill="#54D9EE"/>
<path d="M29.2509 26L26.9056 29.7001L11.373 29.0559L6.87678 20.464C6.87232 20.4611 6.87514 20.4567 6.87068 20.4539L4.1625 15.2817L12.4853 2.15075L28.0168 2.7967L29.3803 5.3975L23.4039 14.8265L23.8467 15.6758C23.8511 15.6787 23.8528 15.6859 23.8547 15.6928L29.2509 26Z" fill="#243AC0"/>
<g style="mix-blend-mode:screen" opacity="0.4">
<g style="mix-blend-mode:screen" opacity="0.4">
<path d="M49.892 15.9189L27.154 14.9796L33.246 5.36821L44.615 5.83787L49.892 15.9189Z" fill="white"/>
</g>
</g>
<g style="mix-blend-mode:screen" opacity="0.2">
<g style="mix-blend-mode:screen" opacity="0.2">
<path d="M27.5517 5.32037L24.1779 10.6432L9.36239 10.0349L13.3306 3.77412L27.0388 4.33916L27.5517 5.32037Z" fill="white"/>
</g>
</g>
<g style="mix-blend-mode:multiply" opacity="0.3">
<g style="mix-blend-mode:multiply" opacity="0.3">
<path d="M29.2498 25.9998L26.9046 29.6999L11.3719 29.0557L6.8757 20.4638C7.7334 21.8317 8.56184 23.226 9.37883 24.6187L10.5958 26.7211C10.9528 27.341 11.3024 27.9625 11.6493 28.5885C11.6568 28.5865 11.6613 28.5893 11.6686 28.5877C12.8725 28.6009 14.0764 28.6141 15.2777 28.6512C16.5701 28.6824 17.8693 28.7129 19.1623 28.7632C20.4552 28.8134 21.7513 28.8488 23.0455 28.9068L26.5871 29.0769L28.6411 25.9545L27.5022 23.6205L26.2513 20.9898C25.4302 19.2389 24.615 17.4787 23.855 15.6904L29.2498 25.9998Z" fill="#141414"/>
</g>
</g>
<g style="mix-blend-mode:multiply" opacity="0.3">
<g style="mix-blend-mode:multiply" opacity="0.3">
<path d="M50.1175 18.5182L44.6458 27.1511L31.4506 26.6049L27.6838 19.4058C28.442 20.5363 29.1382 21.6955 29.8456 22.8569L30.8802 24.6062L31.7435 26.1033C32.7539 26.1063 33.762 26.1328 34.7756 26.1504C35.8727 26.1646 36.9753 26.2193 38.0725 26.2529C39.1698 26.2866 40.2724 26.3413 41.3748 26.3963C42.3673 26.4374 43.3645 26.5008 44.3585 26.5691C44.7675 25.9534 45.184 25.3357 45.6061 24.729C46.0835 24.0249 46.5697 23.327 47.0673 22.6307C48.0513 21.2398 49.0621 19.862 50.1175 18.5182Z" fill="#141414"/>
</g>
</g>
<g style="mix-blend-mode:multiply" opacity="0.3">
<g style="mix-blend-mode:multiply" opacity="0.3">
<path d="M28.0149 2.79767C26.7124 2.8907 25.4158 2.92503 24.1193 2.95935C22.824 2.98193 21.5228 2.99395 20.2279 2.98621C19.5781 2.98613 18.932 2.9703 18.2828 2.95936L16.3391 2.92032C15.1667 2.8771 13.99 2.85053 12.8147 2.7923C12.246 3.66977 11.6913 4.55483 11.1048 5.421L10.1341 6.87354L9.14062 8.31283C8.80915 8.79637 8.48051 9.27544 8.13877 9.74559L7.11851 11.1679C6.42719 12.1108 5.73141 13.0508 4.99551 13.9653L12.4833 2.15173L28.0149 2.79767Z" fill="#141414"/>
</g>
</g>
<g style="mix-blend-mode:multiply" opacity="0.3">
<g style="mix-blend-mode:multiply" opacity="0.3">
<path d="M45.5921 4.29541C44.4878 4.40099 43.3845 4.44594 42.2773 4.48716C41.1701 4.52839 40.0702 4.53858 38.9736 4.5434C38.4202 4.54885 37.8692 4.53079 37.3215 4.52733C36.7738 4.52386 36.2188 4.52203 35.6662 4.49672C34.6876 4.46323 33.7028 4.43954 32.7234 4.38747C32.2907 5.05052 31.8624 5.71642 31.4119 6.36816C30.9083 7.12318 30.3879 7.87504 29.859 8.62084C29.5982 8.99293 29.33 9.36664 29.0561 9.7298C28.7822 10.093 28.5224 10.4732 28.2412 10.838C27.6886 11.562 27.1282 12.2884 26.5368 12.9947L32.3968 3.74928L45.5921 4.29541Z" fill="#141414"/>
</g>
</g>
<path d="M67.3123 26.5007C71.4442 26.5007 74.3309 24.2933 74.3309 20.6708C74.3309 16.7371 71.0197 15.7182 67.7369 14.6711C64.8502 13.7655 63.7465 13.1146 63.7465 11.5864C63.7465 10.0864 64.9634 9.12423 66.8595 9.12423C69.067 9.12423 70.3122 10.3128 71.0197 11.8977L73.7649 10.3128C72.5196 7.68091 70.1141 5.95458 66.8595 5.95458C63.5201 5.95458 60.4919 8.02051 60.4919 11.6713C60.4919 15.4069 63.4918 16.539 66.5765 17.4729C69.5198 18.3785 71.0763 18.9728 71.0763 20.7274C71.0763 22.1707 69.9726 23.3311 67.3972 23.3311C64.7087 23.3311 63.1805 22.0009 62.473 19.9916L59.6712 21.633C60.7183 24.5763 63.4069 26.5007 67.3123 26.5007ZM79.7292 20.3595H90.9928C91.0494 19.9633 91.106 19.5105 91.106 19.086C91.106 15.0107 88.2193 11.6147 84.0025 11.6147C79.5594 11.6147 76.5312 14.8692 76.5312 19.0577C76.5312 23.3028 79.5594 26.5007 84.229 26.5007C87.0024 26.5007 89.1249 25.3404 90.4268 23.416L87.908 21.9443C87.2288 22.9349 85.9553 23.699 84.2573 23.699C81.9932 23.699 80.2103 22.567 79.7292 20.3595ZM79.7009 17.8691C80.1254 15.7465 81.6819 14.3881 83.9742 14.3881C85.8138 14.3881 87.5967 15.4352 88.0212 17.8691H79.7009ZM104.976 11.9826V14.0768C103.901 12.5486 102.231 11.6147 100.052 11.6147C96.0614 11.6147 92.9201 14.8692 92.9201 18.9162C92.9201 22.9632 96.0614 26.2177 100.052 26.2177C102.231 26.2177 103.901 25.2838 104.976 23.7556V25.4819C104.976 27.944 103.391 29.3874 100.759 29.3874C98.2972 29.3874 97.25 28.4252 96.6274 27.2082L93.9955 28.7365C95.1841 31.0005 97.5897 32.1608 100.703 32.1608C104.41 32.1608 107.976 30.0383 107.976 25.4819V11.9826H104.976ZM100.476 23.3594C97.901 23.3594 95.9765 21.4632 95.9765 18.9162C95.9765 16.3691 97.901 14.473 100.476 14.473C103.052 14.473 104.976 16.3691 104.976 18.9162C104.976 21.4632 103.052 23.3594 100.476 23.3594ZM121.076 11.9826V19.5671C121.076 22.4538 119.491 23.6424 117.482 23.6424C115.557 23.6424 114.312 22.5104 114.312 20.3595V11.9826H111.255V20.6708C111.255 24.3499 113.519 26.5007 116.689 26.5007C118.614 26.5007 120.142 25.7932 121.076 24.3216V26.1328H124.132V11.9826H121.076ZM130.763 14.3598V11.9826H127.706V26.1328H130.763V19.0011C130.763 15.8314 133.112 14.8975 135.121 15.039V11.7279C133.338 11.7279 131.612 12.4354 130.763 14.3598ZM147.923 11.9826V13.9919C146.848 12.5203 145.178 11.6147 142.97 11.6147C139.121 11.6147 135.924 14.8409 135.924 19.0577C135.924 23.2462 139.121 26.5007 142.97 26.5007C145.178 26.5007 146.848 25.5951 147.923 24.0952V26.1328H150.979V11.9826H147.923ZM143.451 23.5858C140.904 23.5858 138.98 21.6896 138.98 19.0577C138.98 16.4258 140.904 14.5296 143.451 14.5296C145.998 14.5296 147.923 16.4258 147.923 19.0577C147.923 21.6896 145.998 23.5858 143.451 23.5858ZM162.042 6.32248H154.74V26.1328H157.995V19.3407H162.042C165.777 19.3407 168.607 16.4824 168.607 12.8316C168.607 9.15253 165.777 6.32248 162.042 6.32248ZM162.042 16.2842H157.995V9.37893H162.042C163.966 9.37893 165.353 10.8223 165.353 12.8316C165.353 14.8126 163.966 16.2842 162.042 16.2842ZM181.447 11.9826V13.9919C180.371 12.5203 178.702 11.6147 176.494 11.6147C172.645 11.6147 169.447 14.8409 169.447 19.0577C169.447 23.2462 172.645 26.5007 176.494 26.5007C178.702 26.5007 180.371 25.5951 181.447 24.0952V26.1328H184.503V11.9826H181.447ZM176.975 23.5858C174.428 23.5858 172.504 21.6896 172.504 19.0577C172.504 16.4258 174.428 14.5296 176.975 14.5296C179.522 14.5296 181.447 16.4258 181.447 19.0577C181.447 21.6896 179.522 23.5858 176.975 23.5858ZM197.603 11.9826L193.981 22.2556L189.764 11.9826H186.424L192.424 25.8781L192.283 26.1611C191.575 28.0289 190.5 29.0478 188.519 28.9346V31.7929C191.773 31.991 194.094 30.1798 195.424 26.5856L200.858 11.9826H197.603Z" fill="#243AC0"/>
</svg>
