<svg width="59" height="59" viewBox="0 0 59 59" fill="none" xmlns="http://www.w3.org/2000/svg">
<rect x="7" y="5" width="47.2836" height="48" rx="4" fill="#F5F7FE"/>
<g clip-path="url(#clip0_272_43796)">
<path d="M40.6015 20.48C40.8823 20.7766 41.034 21.1726 41.0231 21.5809C41.0123 21.9892 40.8399 22.3766 40.5437 22.6579L29.2494 33.4511C28.9574 33.7258 28.5709 33.8776 28.17 33.8752C27.7751 33.8767 27.395 33.7246 27.11 33.4511L21.4628 28.0545C21.3062 27.9179 21.1788 27.7509 21.0883 27.5638C20.9978 27.3767 20.9461 27.1732 20.9363 26.9655C20.9265 26.7579 20.9587 26.5504 21.0311 26.3556C21.1035 26.1607 21.2146 25.9825 21.3576 25.8317C21.5007 25.6809 21.6727 25.5605 21.8634 25.4779C22.0542 25.3952 22.2596 25.352 22.4675 25.3508C22.6754 25.3496 22.8813 25.3904 23.073 25.4708C23.2647 25.5513 23.4381 25.6696 23.5829 25.8188L28.17 30.1939L38.4236 20.4221C38.7203 20.1413 39.1162 19.9897 39.5245 20.0005C39.9329 20.0114 40.3202 20.1838 40.6015 20.48Z" fill="#243AC0"/>
</g>
<defs>
<clipPath id="clip0_272_43796">
<rect width="21" height="15" fill="white" transform="translate(20.501 20)"/>
</clipPath>
</defs>
</svg>
