<svg width="59" height="59" viewBox="0 0 59 59" fill="none" xmlns="http://www.w3.org/2000/svg">
<rect x="7" y="5" width="47.2836" height="48" rx="4" fill="#E0FAFE"/>
<path d="M22.6016 32.2955H28.9054C28.5681 31.8465 28.075 31.5397 27.523 31.4356C27.879 30.992 28.0537 30.4301 28.0123 29.8629C27.9711 29.2957 27.7164 28.7652 27.2999 28.3778C26.8834 27.9907 26.3358 27.7754 25.7669 27.7754C25.1983 27.7754 24.6505 27.9907 24.234 28.3778C23.8175 28.7652 23.563 29.2957 23.5216 29.8629C23.4802 30.4301 23.6551 30.992 24.0109 31.4356C23.4493 31.5333 22.9455 31.8406 22.6016 32.2955Z" fill="#18ACC3"/>
<path d="M26.2043 35.9071C26.2043 36.1557 26.0026 36.3573 25.754 36.3573C25.5053 36.3573 25.3037 36.1557 25.3037 35.9071C25.3037 35.6584 25.5053 35.4568 25.754 35.4568C26.0026 35.4568 26.2043 35.6584 26.2043 35.9071Z" fill="#18ACC3"/>
<path d="M31.6075 37.2486C31.2493 37.2486 30.9056 37.3909 30.6523 37.6442C30.3991 37.8974 30.2567 38.2412 30.2567 38.5993H29.4372L30.2567 33.7183C30.278 33.5871 30.2403 33.453 30.1532 33.3523C30.0664 33.2516 29.9395 33.1943 29.8065 33.1961H21.7016C21.5685 33.1943 21.4417 33.2516 21.3549 33.3523C21.2678 33.453 21.23 33.5871 21.2513 33.7183L22.0709 38.5993H19.4503C19.2016 38.5993 19 38.801 19 39.0496C19 39.2983 19.2016 39.4999 19.4503 39.4999H32.5081C32.6275 39.4999 32.7421 39.4525 32.8265 39.368C32.9109 39.2836 32.9584 39.169 32.9584 39.0496V38.5993C32.9584 38.2411 32.816 37.8974 32.5628 37.6442C32.3095 37.3909 31.9657 37.2486 31.6076 37.2486H31.6075ZM25.754 37.2486C25.3958 37.2486 25.0521 37.1062 24.7988 36.853C24.5456 36.5997 24.4032 36.2559 24.4032 35.8978C24.4032 35.5396 24.5456 35.1958 24.7988 34.9426C25.0521 34.6894 25.3959 34.547 25.754 34.547C26.1122 34.547 26.456 34.6893 26.7092 34.9426C26.9624 35.1959 27.1048 35.5396 27.1048 35.8978C27.1048 36.2559 26.9625 36.5997 26.7092 36.853C26.4559 37.1062 26.1122 37.2486 25.754 37.2486Z" fill="#18ACC3"/>
<path d="M22.9179 22.8626C23.2196 22.7681 23.5257 22.678 23.8184 22.5968C24.842 22.309 25.8808 22.0774 26.9297 21.9035C27.7217 20.4815 28.774 19.2214 30.0321 18.1888C30.5286 17.7773 31.0553 17.404 31.6081 17.0722C31.6684 17.0398 31.7339 17.0185 31.8016 17.009C30.7246 17.0758 29.6629 17.2987 28.6498 17.671C28.3074 17.803 27.9721 17.9534 27.6457 18.1212C27.479 18.1978 27.317 18.2788 27.1548 18.3689C26.8456 18.5415 26.5451 18.7293 26.2543 18.9317C26.1011 19.0308 25.9525 19.1344 25.804 19.2469C25.5879 19.4089 25.3762 19.5802 25.1736 19.7557L24.8719 20.0259C24.6783 20.2104 24.4847 20.4042 24.3 20.5977L24.0299 20.8994C23.8542 21.1021 23.6831 21.3137 23.5211 21.5298C23.4085 21.6739 23.305 21.8225 23.2059 21.9801H23.2061C23.0037 22.2708 22.8159 22.5713 22.6433 22.8806C22.6117 22.9391 22.5848 22.9932 22.5576 23.0517L22.8819 22.8897L22.9179 22.8626Z" fill="#18ACC3"/>
<path d="M28.0957 21.7326C29.4101 21.5694 30.7336 21.4882 32.0581 21.4894V17.8872H31.968C30.4033 18.8601 29.0795 20.1747 28.0957 21.7326Z" fill="#18ACC3"/>
<path d="M33.0481 17.8872H32.958V21.4894C34.3141 21.528 35.6669 21.6407 37.0104 21.8271C36.0122 20.2248 34.656 18.8762 33.0481 17.8872Z" fill="#18ACC3"/>
<path d="M34.9941 18.1932C36.2826 19.2512 37.353 20.5495 38.146 22.0161C39.1486 22.1871 40.1708 22.3958 41.2122 22.642L42.0722 22.8581L42.428 22.9391C42.4314 22.9289 42.4314 22.9178 42.428 22.9076C42.2553 22.5982 42.0676 22.2977 41.8651 22.007C41.766 21.8539 41.6625 21.7053 41.5499 21.5568C41.3879 21.3407 41.2166 21.129 41.0412 20.9264L40.7485 20.5887C40.564 20.3905 40.3748 20.2015 40.1766 20.0168L39.8749 19.7467C39.6723 19.571 39.4606 19.3999 39.2445 19.2379C39.1004 19.1253 38.9518 19.0218 38.7942 18.9227C38.5036 18.7203 38.2031 18.5325 37.8937 18.3598C37.7317 18.2698 37.5695 18.1888 37.4028 18.1122H37.403C37.0766 17.9443 36.7413 17.7942 36.399 17.6619C35.3858 17.2896 34.3241 17.0667 33.2471 17C33.3148 17.0094 33.3803 17.0308 33.4406 17.0631C33.9854 17.4012 34.5046 17.7789 34.9941 18.1932Z" fill="#18ACC3"/>
<path d="M21.3005 29.2971L21.3274 29.5673H21.3276C21.3254 29.6077 21.3254 29.6483 21.3276 29.6887C21.3728 30.0555 21.439 30.4194 21.5256 30.7784C21.5869 30.7121 21.6514 30.6489 21.7194 30.5892C21.7019 30.4083 21.6959 30.2262 21.7013 30.0445C21.7001 29.4019 21.8547 28.7685 22.1516 28.1984C22.8004 26.9232 24.0737 26.0845 25.5017 25.9921C25.4997 25.9621 25.4997 25.932 25.5017 25.902C25.6868 24.8676 26 23.8603 26.4335 22.9033C25.3463 23.1092 24.2712 23.3769 23.2141 23.7047H23.1782L21.9445 24.3486C21.4828 25.5951 21.248 26.9141 21.251 28.2435V28.9458L21.3005 29.2971Z" fill="#18ACC3"/>
<path d="M29.356 27.7929H32.0576V22.3897C30.5416 22.3885 29.0275 22.4998 27.528 22.7229C26.9915 23.766 26.6122 24.8828 26.4023 26.0368C27.5311 26.2226 28.5286 26.8768 29.149 27.8379C29.2127 27.8047 29.2842 27.7893 29.356 27.7929Z" fill="#18ACC3"/>
<path d="M37.5552 22.8399C36.0341 22.5909 34.4986 22.4403 32.958 22.3896V27.7929H38.8115C38.7502 26.0712 38.322 24.3827 37.5552 22.8399Z" fill="#18ACC3"/>
<path d="M35.5158 37.8344C35.4328 37.9122 35.3234 37.9556 35.2097 37.956C35.0842 37.9544 34.965 37.9005 34.881 37.8075C34.7063 37.6318 34.7063 37.3481 34.881 37.1724C36.0644 36.0896 37.0212 34.7824 37.696 33.327C38.3708 31.8717 38.7501 30.297 38.8119 28.6939H32.9583V32.7463C32.9583 32.995 32.7567 33.1966 32.5081 33.1966C32.2594 33.1966 32.0578 32.995 32.0578 32.7463V28.6939H29.5723C29.7282 29.1271 29.8074 29.5842 29.8064 30.0447C29.8058 30.2268 29.7938 30.4089 29.7705 30.5895C30.078 30.861 30.3436 31.1766 30.5584 31.5262C31.0573 31.7031 31.4778 32.05 31.7462 32.5061C32.0148 32.9624 32.1138 33.4985 32.0262 34.0206L31.7876 35.4479C32.5919 35.494 33.3481 35.8463 33.9008 36.4325C34.4534 37.0187 34.7608 37.7942 34.7594 38.5998V39.0501C34.764 39.1251 34.764 39.2003 34.7594 39.2752C36.4413 38.9345 38.023 38.2137 39.3837 37.168C39.5503 37.0374 39.717 36.9069 39.8746 36.7672L40.1087 36.5602L40.2798 36.4026L40.595 36.0874L40.8877 35.7766C41.0993 35.538 41.302 35.2948 41.4911 35.0427C41.5902 34.9167 41.6803 34.7906 41.7703 34.66C41.8604 34.5293 41.9504 34.3988 42.0361 34.2638C42.1217 34.1287 42.2027 33.9936 42.2837 33.8585L42.5133 33.4398C42.6528 33.1697 42.7834 32.8904 42.9051 32.6068C43.0267 32.3232 43.1302 32.0349 43.2293 31.7378L43.2289 31.7376C43.2339 31.708 43.243 31.6793 43.256 31.6522C43.3011 31.5036 43.3461 31.3504 43.3867 31.2019C43.4273 31.0533 43.4677 30.8867 43.5037 30.7291C43.5397 30.5715 43.5622 30.4724 43.5847 30.342L43.6116 30.1799C43.6386 30.0404 43.6611 29.8963 43.6792 29.7566C43.6973 29.6171 43.7198 29.428 43.7332 29.2613C43.7467 29.0947 43.7602 28.9236 43.7648 28.757V28.6938H39.7124C39.6501 30.4189 39.2472 32.1145 38.527 33.6832C37.807 35.2519 36.7834 36.6626 35.5158 37.8343L35.5158 37.8344Z" fill="#18ACC3"/>
</svg>
