<svg width="59" height="59" viewBox="0 0 59 59" fill="none" xmlns="http://www.w3.org/2000/svg">
<rect x="7" y="5" width="47.2836" height="48" rx="4" fill="#EEF1FF"/>
<path d="M30.9997 16.384L18.1035 26.3529L18.808 27.2642L30.9997 17.8404L43.1914 27.2642L43.8959 26.3529L30.9997 16.384Z" fill="#4A5DD9"/>
<path d="M40.936 26.9526L31 19.2722L21.064 26.9526V36.1202H19.9121V37.4162H33.5921V33.0243C33.5921 31.791 34.591 30.7924 35.824 30.7924C37.0561 30.7924 38.0559 31.7912 38.0559 33.0243V37.4162H42.0878V36.1202H40.9359L40.936 26.9526ZM27.075 32.087H23.6558V28.2013H27.075V32.087ZM31.5039 32.087H28.0847V28.2013H31.5039V32.087Z" fill="#4A5DD9"/>
</svg>
