<svg width="24" height="25" viewBox="0 0 24 25" fill="none" xmlns="http://www.w3.org/2000/svg">
<circle cx="12" cy="12.7487" r="12" fill="black"/>
<g clip-path="url(#clip0_316_36660)">
<path d="M13.0763 15.8202L11.1737 17.7228C10.0131 18.8524 8.15639 18.8273 7.02673 17.6666C5.91887 16.5283 5.91862 14.715 7.02616 13.5764L8.92876 11.672C9.15651 11.4441 9.15637 11.0747 8.92846 10.847C8.70055 10.6192 8.33118 10.6194 8.10343 10.8473L6.2014 12.7516C4.60092 14.3529 4.60157 16.9485 6.20285 18.549C7.80413 20.1495 10.3997 20.1488 12.0002 18.5476L13.9028 16.645C14.1266 16.4132 14.1202 16.044 13.8885 15.8202C13.6625 15.6019 13.3041 15.6019 13.0781 15.8202H13.0763V15.8202Z" fill="white"/>
<path d="M17.8002 6.95115C17.0336 6.17924 15.9899 5.74633 14.9019 5.74904C13.8146 5.74614 12.7713 6.17815 12.0043 6.94882L10.0988 8.852C9.87085 9.07975 9.87071 9.44912 10.0985 9.67703C10.3262 9.90494 10.6956 9.90507 10.9235 9.67733L12.8278 7.77473C13.3763 7.22294 14.1228 6.91358 14.9008 6.91558C16.5204 6.91612 17.833 8.22954 17.8324 9.84919C17.8322 10.6265 17.5233 11.372 16.9737 11.9217L15.0711 13.8243C14.8432 14.0523 14.8432 14.4218 15.0711 14.6497C15.299 14.8776 15.6685 14.8776 15.8964 14.6497L17.799 12.7482C19.3972 11.1465 19.3978 8.55347 17.8002 6.95115Z" fill="white"/>
<path d="M13.3378 10.5862L9.83822 14.0858C9.60651 14.3096 9.60011 14.6788 9.82389 14.9105C10.0477 15.1422 10.4169 15.1486 10.6486 14.9248C10.6535 14.9201 10.6582 14.9154 10.6629 14.9105L14.1625 11.4109C14.3863 11.1792 14.3799 10.81 14.1482 10.5862C13.9222 10.3679 13.5639 10.3679 13.3378 10.5862Z" fill="white"/>
</g>
<defs>
<clipPath id="clip0_316_36660">
<rect width="14" height="14" fill="white" transform="translate(5 5.74866)"/>
</clipPath>
</defs>
</svg>
