<svg width="24" height="25" viewBox="0 0 24 25" fill="none" xmlns="http://www.w3.org/2000/svg">
<circle cx="12" cy="12.7487" r="12" fill="black"/>
<path fill-rule="evenodd" clip-rule="evenodd" d="M8.03861 7.2021C8.03861 7.99447 7.43529 8.63572 6.4918 8.63572C5.58507 8.63572 4.98175 7.99447 5.00042 7.2021C4.98175 6.37123 5.58506 5.74866 6.50988 5.74866C7.43528 5.74866 8.02053 6.37123 8.03861 7.2021ZM5.07628 18.9977V9.76825H7.94467V18.9972H5.07628V18.9977Z" fill="white"/>
<path fill-rule="evenodd" clip-rule="evenodd" d="M10.2433 12.714C10.2433 11.5628 10.2054 10.5814 10.1675 9.76976H12.6589L12.7914 11.0342H12.848C13.2255 10.4489 14.169 9.56262 15.6977 9.56262C17.5847 9.56262 19.0002 10.8084 19.0002 13.525V18.9993H16.1318V13.8845C16.1318 12.6947 15.717 11.8837 14.679 11.8837C13.886 11.8837 13.4146 12.431 13.2261 12.9591C13.1502 13.1481 13.1129 13.4118 13.1129 13.6767V18.9993H10.2445V12.714H10.2433Z" fill="white"/>
</svg>
