<svg width="24" height="25" viewBox="0 0 24 25" fill="none" xmlns="http://www.w3.org/2000/svg">
<circle cx="12" cy="12.7487" r="12" fill="black"/>
<path fill-rule="evenodd" clip-rule="evenodd" d="M19.766 8.16905C19.2231 8.41021 18.6389 8.57262 18.0262 8.64596C18.6517 8.27093 19.1321 7.67737 19.358 6.97013C18.7733 7.3176 18.1241 7.5691 17.4346 7.70543C16.8819 7.1168 16.0939 6.74866 15.2233 6.74866C13.5504 6.74866 12.194 8.10507 12.194 9.77794C12.194 10.0152 12.2211 10.2465 12.2727 10.4684C9.75482 10.3425 7.52284 9.13616 6.02863 7.30333C5.76778 7.75071 5.61865 8.27093 5.61865 8.8261C5.61865 9.87687 6.15265 10.8041 6.9662 11.3475C6.46912 11.3317 6.00254 11.1954 5.59355 10.9685V11.0064C5.59355 12.4745 6.63842 13.6985 8.02338 13.9776C7.76942 14.0465 7.50168 14.0839 7.22558 14.0839C7.03019 14.0839 6.84021 14.0647 6.65515 14.0293C7.04052 15.2326 8.15971 16.1087 9.48511 16.1333C8.44861 16.9454 7.1424 17.4301 5.72299 17.4301C5.47789 17.4301 5.23673 17.4159 5 17.3873C6.34066 18.2466 7.93282 18.7487 9.64359 18.7487C15.2154 18.7487 18.2624 14.1326 18.2624 10.1298C18.2624 9.99843 18.2599 9.86752 18.2535 9.73808C18.8461 9.30989 19.3599 8.77638 19.766 8.16905Z" fill="white"/>
</svg>
